<?xml version="1.0" encoding="utf-8"?>
<!-- Generator: Adobe Illustrator 21.1.0, SVG Export Plug-In . SVG Version: 6.00 Build 0)  -->
<svg version="1.1" id="Слой_1" xmlns="http://www.w3.org/2000/svg" xmlns:xlink="http://www.w3.org/1999/xlink" x="0px" y="0px"
	 viewBox="0 0 1467.1 1326.3" style="enable-background:new 0 0 1467.1 1326.3;" xml:space="preserve">
<style type="text/css">
	.st0{fill-rule:evenodd;clip-rule:evenodd;fill:#381D17;}
</style>
<path class="st0" d="M970.9,537.3c-5.5,0.5-6.4,5.2-5.9,7.8c6.9-0.1,12.9,1.1,17.7,4c2.8,1.4,5.6-0.1,6.1-1.7
	c1.2-3.8-0.1-7.6-3.7-8.8C980.2,536.9,975.3,536.9,970.9,537.3L970.9,537.3z M713.6,438.7h42.5V486h47.3v42.5h-47.3v47.3h-42.5
	v-47.3h-47.3V486h47.3V438.7L713.6,438.7z M864.5,496.5c2.1,3.8,5.4,6.8,10.2,9.1c5.1-2.3,8.2-5.5,10.2-9.1
	C875.9,501.4,873.4,501.8,864.5,496.5L864.5,496.5z M860.4,526.7c7.5-5.1,20.4-4.6,28.5,0C879.4,526.7,869.9,526.7,860.4,526.7
	L860.4,526.7z M854,485.2c13.8,0,27.5,0,41.3,0c-3.5,8.7-8.8,16.4-17.3,22.4c8.5,6,13.8,13.7,17.3,22.4c-13.8,0-27.5,0-41.3,0
	c3.7-9,9.5-16.5,17.5-22.4C863.5,501.7,857.7,494.2,854,485.2L854,485.2z M842.9,485.2v44.7h6.4v-44.7H842.9L842.9,485.2z
	 M837.7,544.3h74V536h-74V544.3L837.7,544.3z M900,485.2v44.7h6.4v-44.7H900L900,485.2z M837.7,478.5h74v-8.3h-74V478.5L837.7,478.5
	z M735.1,640.4L735.1,640.4l-0.2,0h0l-0.1,0h0l-0.1,0h0l-0.1,0h0h-0.1l0,0l-0.1,0h-0.1l0,0h-0.1h0l-0.1,0h0h-0.1h-0.1h0l-0.1,0h0
	h-0.1l0,0h-0.1l-0.1,0l0,0h-0.1h0l-0.1,0h0l-0.1,0h0l-0.1,0h0l-0.2,0l0,0l-0.1,0l-0.1,0l-0.5-0.1l0,0c-1.8-0.4-3.4-1.3-4.7-2.5
	c-1.7-1.7-2.7-4-2.7-6.6c0-2.6,1-4.9,2.7-6.6c1.7-1.7,4-2.7,6.6-2.7c2.6,0,4.9,1,6.6,2.7c1.7,1.7,2.7,4,2.7,6.6c0,2.6-1,4.9-2.7,6.6
	C739.1,639.2,737.2,640.1,735.1,640.4L735.1,640.4z M717,644c0.6,0.8,1.2,1.5,1.9,2.2c3.1,3.1,7.2,5.3,11.8,6l0,0l0.4,0.1l0.1,0
	l0.1,0l0.1,0l0.1,0l0.2,0l0.1,0l0.2,0l0.2,0h0l0.2,0l0,0l0.2,0l0.1,0l0.1,0h0.1l0.1,0l0.2,0l0.1,0l0.2,0h0h0.2h0.2h0l0.2,0l0.1,0
	l0.2,0l0.1,0h0.1l0.1,0l0.1,0l0.2,0l0,0l0.2,0h0l0.2,0l0.2,0l0.1,0l0.2,0l0.1,0l0.1,0l0.1,0l0.1,0l0.4-0.1l0,0
	c4.6-0.7,8.7-2.8,11.8-6c0.7-0.7,1.3-1.4,1.9-2.2c0.6,1.1,1,2.2,1,3.4c0,2.6-1.7,5.1-4.4,7c-3.4,2.4-8.1,3.8-13.4,3.8
	c-5.3,0-10.1-1.5-13.4-3.8c-2.7-1.9-4.4-4.4-4.4-7C716,646.2,716.4,645,717,644L717,644z M725.8,716.6v1.2h-12.7v13.9h12.7l0,6.9
	h16.6v-6.9h12.7v-13.9h-12.7v-8.6h10.4v-13.5h-10.4v-24.2c4.7-1,9.2-2.8,13.1-5.6c6.2-4.4,10.5-10.9,10.5-18.7
	c0-4.3-1.4-8.4-3.8-11.9c-1.3-2-3-3.7-4.8-5.2c-0.2-5.9-2.7-11.5-6.9-15.7c-4.4-4.4-10.4-6.9-16.7-6.9c-6.3,0-12.3,2.5-16.7,6.9
	c-4.2,4.2-6.6,9.8-6.9,15.7c-1.8,1.5-3.5,3.3-4.8,5.3c-2.4,3.6-3.8,7.6-3.8,11.9c0,7.8,4.3,14.3,10.5,18.7c4,2.8,8.7,4.7,13.5,5.6
	v24.1H716v13.5h9.8L725.8,716.6L725.8,716.6L725.8,716.6z M560.2,511.5h60.3v29.3H598v-13.2c0-4.4-3.4-8-7.6-8h0
	c-4.1,0-7.6,3.6-7.6,8v13.2h-22.7V511.5L560.2,511.5z M554,473.6h16.9v19.5H582v-19.5h16.9v19.5h11.2v-19.5h16.9v24.7h0v7.3h-6.3
	h-60.5H554v-7.3h0V473.6L554,473.6z M763.9,349.1c-4.5-2.5-9.3-4.4-14.4-5.7c-4.9-1.2-10-1.8-15.1-1.8c-4.9,0-11.2,0.2-15.8,1.9
	c-1.8,0.7-4.7,1.9-4.7,4.3c0,2.5,3.2,3.5,5.2,3.9c1.7,0.4,3.4,0.7,5.1,0.8c2,0.2,4,0.3,6,0.4c2.3,0.1,4.6,0.2,6.9,0.3
	c2.6,0.1,5.1,0.3,7.6,0.5c4.7,0.4,9.5,1.1,14.1,2.2c3.5,0.8,7.1,2.1,10.2,3.9c2.6,1.6,4.8,3.7,6.3,6.4c1.5,2.8,2.1,5.9,2.1,9.1
	c0,8-3.8,14-10.6,18.2c-8.5,5.2-20.5,6.4-30.3,6.4c-8.1,0-16.1-0.9-23.9-3.1c-7.5-2.1-14.5-5.5-20.9-9.9l-0.9-0.6l10.3-12.7l0.7,0.5
	c5.5,3.3,11.3,6.1,17.4,7.9c5.9,1.7,12,2.6,18.1,2.6c4.9,0,11-0.4,15.5-2.5c2.4-1.2,5-3,5-6c0-1.1-0.3-2-1.2-2.7
	c-1.2-0.9-2.8-1.4-4.2-1.7c-2.3-0.5-4.8-0.7-7.2-0.8c-3.3-0.1-6.5-0.3-9.8-0.5c-5.8-0.2-11.8-0.7-17.6-1.7
	c-4.3-0.7-8.7-1.9-12.7-3.8c-3.1-1.5-5.9-3.5-7.8-6.4c-1.9-2.8-2.6-6-2.6-9.3c0-7.5,3.9-13,10.2-16.8c8.2-5,19.5-6,28.9-6
	c14,0,28.8,2.3,40.7,10.2l1,0.6l-10.7,12.4L763.9,349.1L763.9,349.1z M607.1,176.5c80.5,28.8,169.7,28.8,250.2,0
	c-4.9-1.8-9.9-3.4-14.9-5c-36.9,10.3-73.8,15.6-110.5,15.7c-36.9,0.1-73.6-5.1-110.2-15.6C616.8,173.1,611.9,174.8,607.1,176.5
	L607.1,176.5z M870.9,146.1c1.1,0.4,6.1,2.7,7.2,3.2c-2.5,8.2-8.2,18.8-11,22.6c-4.2-1.7-2.2-0.9-6.4-2.5
	c-83.8-30.8-173.3-30.8-257.1,0c-4.2,1.5-2.3,0.8-6.4,2.5c-2.7-3.8-8.5-14.3-11-22.6c1.1-0.5,6.1-2.7,7.2-3.2
	C681.9,110.3,782.5,110.3,870.9,146.1L870.9,146.1z M598.4,153.3l2.1,5.9c43.6-15.4,87.5-22.9,131.4-22.8
	c44,0.1,88.2,7.8,132.5,22.8l2-6c-45-15.2-89.8-23-134.5-23.1C687.2,130,642.7,137.6,598.4,153.3L598.4,153.3z M556,66.6
	c3.7,0,6.8,3,6.8,6.8c0,3.7-3,6.8-6.8,6.8c-3.7,0-6.8-3-6.8-6.8C549.2,69.6,552.2,66.6,556,66.6L556,66.6z M638.6,37.7
	c4.3,0,7.8,3.5,7.8,7.8c0,4.3-3.5,7.8-7.8,7.8c-4.3,0-7.8-3.5-7.8-7.8C630.8,41.2,634.3,37.7,638.6,37.7L638.6,37.7z M732.3,6.9
	c4.4,0,8,3.6,8,8c0,4.4-3.6,8-8,8s-8-3.6-8-8C724.4,10.5,727.9,6.9,732.3,6.9L732.3,6.9z M826.4,37.7c-4.3,0-7.8,3.5-7.8,7.8
	c0,4.3,3.5,7.8,7.8,7.8c4.3,0,7.8-3.5,7.8-7.8C834.2,41.2,830.7,37.7,826.4,37.7L826.4,37.7z M909.1,66.6c-3.7,0-6.8,3-6.8,6.8
	c0,3.7,3,6.8,6.8,6.8c3.7,0,6.8-3,6.8-6.8C915.8,69.6,912.8,66.6,909.1,66.6L909.1,66.6z M876,135.8l12.4-33.5
	c-12.2,8.9-25.1,17.4-39.4,24.9c2.8,0.8,5.6,1.7,8.4,2.6c6.6-3.7,13.1-7.6,19-12.6l-6.3,16.7L876,135.8L876,135.8z M823.8,120.3
	c4,1,8,2.1,11.9,3.2c-8.3-15-14.5-33.6-18.8-50.4c-9.5,12.4-22.4,25.8-37.1,38.2c4,0.6,8,1.3,12,2c8.7-6,16.2-14,21.5-22
	C815,100.7,819.5,112.2,823.8,120.3L823.8,120.3z M701.6,109.2c12.2-16.1,22.8-36,30.3-54.1c8.4,16.5,18.5,37.7,33,54.3
	c-4.9-0.5-9.8-0.9-14.7-1.2c-7.7-9.7-13.9-23.5-17.8-33.6c-3.7,11.6-10.5,24.3-16.9,33.5C710.9,108.4,706.3,108.7,701.6,109.2
	L701.6,109.2z M640.5,120.1c4.1-7.9,9.2-19.3,11.2-28.8c5.2,7.9,14.7,15.3,23,21.5c3.8-0.6,7.6-1.2,11.3-1.8
	c-16.1-12.3-29.7-25.4-38.6-38c-4.4,16.8-10.6,35.2-18.8,50.2C632.6,122.2,636.5,121.1,640.5,120.1L640.5,120.1z M587.8,136
	c2.1-0.7,4.3-1.5,6.4-2.2c-2.2-5.5-4.7-10.9-6.8-16.5c5.9,5,12.9,8.7,19.5,12.3c3.4-1.1,6.9-2.1,10.3-3.2
	c-14.3-7.5-30.5-15.4-42.6-24.3C578.7,113.6,583.5,124.8,587.8,136L587.8,136z M939.8,276.1l-415.7-0.1l0.3,410.6
	c0,6.9,1.3,12.9,4.9,18.9c14.1,23.4,59.9,42.1,84.2,51.7c36.2,14.3,82.3,28.4,119.2,51.4c36.9-23,83-37,119.1-51.3
	c27.5-10.9,89.3-33.1,89.2-70.5L939.8,276.1L939.8,276.1z M964.7,485c-3.1,0-5.7,2.5-5.7,5.7c0,3,2.3,5.4,5.2,5.6c0.1,0,0.3,0,0.4,0
	c3.1,0,5.7-2.5,5.7-5.7C970.4,487.5,967.9,485,964.7,485L964.7,485z M499.6,485c-3.1,0-5.7,2.5-5.7,5.7c0,3.1,2.5,5.7,5.7,5.7
	c3.1,0,5.7-2.5,5.7-5.7C505.2,487.5,502.7,485,499.6,485L499.6,485z M925.2,244.8c-3.1,0-5.7,2.5-5.7,5.7c0,3.1,2.5,5.6,5.7,5.6
	s5.7-2.5,5.7-5.6C930.9,247.4,928.3,244.8,925.2,244.8L925.2,244.8z M533.1,244.8c-3.1,0-5.7,2.5-5.7,5.7c0,3.1,2.5,5.6,5.7,5.6
	c3.1,0,5.7-2.5,5.7-5.6C538.8,247.4,536.2,244.8,533.1,244.8L533.1,244.8z M589.1,244.8c-3.1,0-5.7,2.5-5.7,5.7
	c0,3.1,2.5,5.6,5.7,5.6c3.1,0,5.7-2.5,5.7-5.6C594.8,247.4,592.2,244.8,589.1,244.8L589.1,244.8z M645.1,244.8
	c-3.1,0-5.7,2.5-5.7,5.7c0,3.1,2.5,5.6,5.7,5.6c3.1,0,5.7-2.5,5.7-5.6C650.8,247.4,648.2,244.8,645.1,244.8L645.1,244.8z
	 M701.1,244.8c-3.1,0-5.7,2.5-5.7,5.7c0,3.1,2.5,5.6,5.7,5.6c3.1,0,5.7-2.5,5.7-5.6C706.8,247.4,704.3,244.8,701.1,244.8
	L701.1,244.8z M757.2,244.8c-3.1,0-5.7,2.5-5.7,5.7c0,3.1,2.5,5.6,5.7,5.6c3.1,0,5.7-2.5,5.7-5.6
	C762.8,247.4,760.3,244.8,757.2,244.8L757.2,244.8z M813.2,244.8c-3.1,0-5.7,2.5-5.7,5.7c0,3.1,2.5,5.6,5.7,5.6
	c3.1,0,5.7-2.5,5.7-5.6C818.8,247.4,816.3,244.8,813.2,244.8L813.2,244.8z M869.2,244.8c-3.1,0-5.7,2.5-5.7,5.7
	c0,3.1,2.5,5.6,5.7,5.6c3.1,0,5.7-2.5,5.7-5.6C874.8,247.4,872.3,244.8,869.2,244.8L869.2,244.8z M975.6,235l-31.9,31.8l-422.4-0.1
	l-31.9-31.8L975.6,235L975.6,235z M685.5,806.7c3.1,0,5.7,2.5,5.7,5.7c0,3.1-2.5,5.7-5.7,5.7c-3.1,0-5.7-2.5-5.7-5.7
	C679.9,809.2,682.4,806.7,685.5,806.7L685.5,806.7z M629,784.6c3.1,0,5.7,2.5,5.7,5.7c0,3.1-2.5,5.7-5.7,5.7c-3.1,0-5.7-2.5-5.7-5.7
	C623.3,787.1,625.8,784.6,629,784.6L629,784.6z M578.3,763.1c3.1,0,5.7,2.5,5.7,5.7c0,3.1-2.5,5.7-5.7,5.7c-3.1,0-5.7-2.5-5.7-5.7
	C572.7,765.6,575.2,763.1,578.3,763.1L578.3,763.1z M532.6,738.3c3.1,0,5.7,2.5,5.7,5.7c0,3.1-2.5,5.7-5.7,5.7
	c-3.1,0-5.7-2.5-5.7-5.7C526.9,740.8,529.4,738.3,532.6,738.3L532.6,738.3z M499.7,698.4c-3.1,0-5.7,2.5-5.7,5.7
	c0,3.1,2.5,5.7,5.7,5.7c3.1,0,5.7-2.5,5.7-5.7C505.4,701,502.8,698.4,499.7,698.4L499.7,698.4z M499.7,645.7c-3.1,0-5.7,2.5-5.7,5.7
	c0,3.1,2.5,5.7,5.7,5.7c3.1,0,5.7-2.5,5.7-5.7C505.4,648.2,502.8,645.7,499.7,645.7L499.7,645.7z M499.7,434.9
	c-3.1,0-5.7,2.5-5.7,5.7c0,3.1,2.5,5.7,5.7,5.7c3.1,0,5.7-2.5,5.7-5.7C505.4,437.4,502.8,434.9,499.7,434.9L499.7,434.9z
	 M499.7,382.1c-3.1,0-5.7,2.5-5.7,5.7s2.5,5.7,5.7,5.7c3.1,0,5.7-2.5,5.7-5.7S502.8,382.1,499.7,382.1L499.7,382.1z M499.7,329.4
	c-3.1,0-5.7,2.5-5.7,5.7c0,3.1,2.5,5.7,5.7,5.7c3.1,0,5.7-2.5,5.7-5.7C505.4,332,502.8,329.4,499.7,329.4L499.7,329.4z M499.7,276.7
	c-3.1,0-5.7,2.5-5.7,5.7c0,3.1,2.5,5.7,5.7,5.7c3.1,0,5.7-2.5,5.7-5.7C505.4,279.2,502.8,276.7,499.7,276.7L499.7,276.7z
	 M778.7,806.7c3.1,0,5.7,2.5,5.7,5.7c0,3.1-2.5,5.7-5.7,5.7c-3.1,0-5.7-2.5-5.7-5.7C773,809.2,775.6,806.7,778.7,806.7L778.7,806.7z
	 M835.3,784.6c3.1,0,5.6,2.5,5.6,5.7c0,3.1-2.5,5.7-5.6,5.7c-3.1,0-5.7-2.5-5.7-5.7C829.6,787.1,832.1,784.6,835.3,784.6
	L835.3,784.6z M885.9,763.1c3.1,0,5.7,2.5,5.7,5.7c0,3.1-2.5,5.7-5.7,5.7c-3.1,0-5.7-2.5-5.7-5.7
	C880.2,765.6,882.8,763.1,885.9,763.1L885.9,763.1z M931.7,738.3c3.1,0,5.7,2.5,5.7,5.7c0,3.1-2.5,5.7-5.7,5.7
	c-3.1,0-5.7-2.5-5.7-5.7C926,740.8,928.5,738.3,931.7,738.3L931.7,738.3z M964.5,698.4c3.1,0,5.7,2.5,5.7,5.7c0,3.1-2.5,5.7-5.7,5.7
	c-3.1,0-5.7-2.5-5.7-5.7C958.9,701,961.4,698.4,964.5,698.4L964.5,698.4z M964.5,645.7c3.1,0,5.7,2.5,5.7,5.7c0,3.1-2.5,5.7-5.7,5.7
	c-3.1,0-5.7-2.5-5.7-5.7C958.9,648.2,961.4,645.7,964.5,645.7L964.5,645.7z M964.5,434.9c3.1,0,5.7,2.5,5.7,5.7
	c0,3.1-2.5,5.7-5.7,5.7c-3.1,0-5.7-2.5-5.7-5.7C958.9,437.4,961.4,434.9,964.5,434.9L964.5,434.9z M964.5,382.1
	c3.1,0,5.7,2.5,5.7,5.7s-2.5,5.7-5.7,5.7c-3.1,0-5.7-2.5-5.7-5.7S961.4,382.1,964.5,382.1L964.5,382.1z M964.5,329.4
	c3.1,0,5.7,2.5,5.7,5.7c0,3.1-2.5,5.7-5.7,5.7c-3.1,0-5.7-2.5-5.7-5.7C958.9,332,961.4,329.4,964.5,329.4L964.5,329.4z M964.5,276.7
	c3.1,0,5.7,2.5,5.7,5.7c0,3.1-2.5,5.7-5.7,5.7c-3.1,0-5.7-2.5-5.7-5.7C958.9,279.2,961.4,276.7,964.5,276.7L964.5,276.7z
	 M736.8,855.1v-39c8.9-5.5,18.3-10.4,27.8-14.9c29.5-13.8,60.3-24,90.5-36c26.9-10.6,73.2-29.7,88.7-55.4c4.4-7.3,6.1-14.9,6.1-23.4
	l-1.2-413.7l31.7-31.5l0.8,290.8c-2.1-0.3-4.2-0.5-6.4-0.9c-11.2-1.8-18.6,1.7-15.6,15.9c-5,9.5-3.5,17.7,4.1,25
	c-6.5,6.5-5.6,14.9-0.2,21.1c-2.5,0.6-4.3,2.8-4.3,5.5c0,3.1,2.5,5.7,5.7,5.7c3.1,0,5.6-2.5,5.7-5.6c1.9,1,4,1.9,6.3,2.5
	c1.7,0.4,3.4,0.7,5,0.8l0.2,84.4c0,14.3-3.3,27.6-10.7,39.9c-20.4,33.8-69,54.6-104.2,68.6c-29.4,11.6-60,21.8-88.7,35.2
	C764.1,836.5,749.2,844.6,736.8,855.1L736.8,855.1z M483.3,240.8c0,67.8,0.1,127.8,0.1,186.3l0,0v27.3l0.1,77.9
	c2.8-0.5,5.7-0.7,8.7-1.2c11.2-1.8,18.6,1.7,15.6,15.9c5,9.5,3.5,17.7-4.1,25c6.8,6.8,5.4,15.7-0.7,22.1c1.4,1,2.3,2.7,2.3,4.5
	c0,3.1-2.5,5.7-5.7,5.7c-2.7,0-4.9-1.9-5.5-4.3c-1.1,0.5-2.3,0.9-3.6,1.2c-2.5,0.6-4.8,0.9-7,0.8l0,84.2c0,14.4,3.3,27.6,10.8,39.9
	c20.4,33.9,68.8,54.7,104.2,68.5c29.4,11.7,60.1,21.9,88.6,35.4c14.1,6.6,29.1,14.7,41.4,25.2v-39c-9-5.7-18.3-10.5-27.9-15
	c-29.4-13.8-60.4-24-90.7-36c-26.7-10.5-72.7-29.7-88.3-55.3c-4.5-7.5-6.3-15-6.3-23.7l-0.3-413.8L483.3,240.8L483.3,240.8z
	 M1075.7,385.4c0.3-6.6,2.5-11.5,5.5-11.7c8.9-3.6,14.3-5.8,23.8-14.3c-1.3-4.5,3.6-7.1,13.7-6.8c16.8,0.5,33.6,1.8,48.2,8.8
	c4.5-2.5,9-4.4,13.5-5.7c5.5-0.1,7.8,10.3,4.7,17.4c-3.6,0.9-8,1.5-12.4,2c0.3-2.2,0-4.3-0.5-6.5c2.4-2.5,5.7-4.3,9.2-6
	c-4.9-0.2-9.3,1-13.3,3c2.7,15.9-11.2,30-25.1,34.9c1.2,4.7,2,9.4,2.7,14.2c-4.4-3.3-9.2-6.4-15.8-8.6c1.5,9.2-7,14.7-25.2,16.8
	c-9,0.9-11.4,2.6-17.6,5.1c-5.4,0.4-8.6-1.1-11.3-2.9c-0.9-2.1-1.1-4.1-0.8-6.1c0.4-3.5,8.3-1.2,18.1,2.5c2.8-0.4,7.3-2,8.6-3.5
	c-14.2-5.7-22.7-7.5-35.7-8c0-3.4,0.9-12.5,2.5-17C1069.3,390.8,1075,390.8,1075.7,385.4L1075.7,385.4z M1105.2,375.9
	c0.2,1.2,4.5,0.7,5.2-0.3c3.2-4.3,7.4-7.3,13.3-8c0.9-0.1,1.4-2.4,0-3.3c-5.3,0.5-10.6,1.1-15.4,2.5c-1.6,0.4-2.8,1.4-3.1,3.3
	C1104.9,372.2,1105,374.4,1105.2,375.9L1105.2,375.9z M1102,418.4c11.6,2.8,18.3-14.7,6.6-16.8
	C1111.2,406.9,1109.2,414.4,1102,418.4L1102,418.4z M1118.4,406.9c6-1.6,6.4-13.6,6.4-14c-0.1-0.9-3.9-2.9-4.7-2.1
	C1120.3,395.8,1119.6,401.9,1118.4,406.9L1118.4,406.9z M1132.6,348.2c-0.1-11.7,10.6-18.2,32.9-19c-13.3,4.6-20.7,12.2-19.7,20.7
	C1142.5,348.5,1138.2,347.9,1132.6,348.2L1132.6,348.2z M1162.3,355.5c9.8-19.7,37.1-15.2,45.5-27.1c-17,8.5-38-2.4-55.2,21.9
	C1155.9,351.5,1159.1,353.2,1162.3,355.5L1162.3,355.5z M1188.7,355.7c10.7-7.9,18.7-11.7,42.3-13.9c-8-9.5-29.9-5.8-56.4,8.8
	C1183,349.1,1188,350.6,1188.7,355.7L1188.7,355.7z M1252.7,368.4c-21.3-6.7-41.1-6.5-62.5,1.6c0.7-2.7,0.3-6.8,0-9.3
	C1220.1,340.3,1239.3,347.8,1252.7,368.4L1252.7,368.4z M1232.7,372.6c28.6,13.9,67.3,49.1,57.4,81.6
	C1286,424.9,1247.3,380,1232.7,372.6L1232.7,372.6z M1260.6,517.9c9.2-74.5-21-145.9-71.8-135.8
	C1249.5,340.6,1311.4,488.5,1260.6,517.9L1260.6,517.9z M1150.7,406.4c18.8,36.3,17.7,66.7-20.5,100.5c56.5-19.9,59-69.2,28.6-100.6
	c10.6-6.6,17.2-15.2,21.5-25.6c-2.9-0.5-4.5-1.4-7.3-1.9C1171.8,384.7,1165.6,398.7,1150.7,406.4L1150.7,406.4z M1081.4,492.2
	c60.8,20.5,91.4-37.7,56.6-75.5c-6,5.6-12.1,8.7-18.7,9.8C1159.9,454.3,1135.4,499.7,1081.4,492.2L1081.4,492.2z M1207.8,546.7
	c31.7-50.9,26.4-121.5-23.4-148.1c-3.2,2.7-7.1,5.2-11.9,7.4C1214.9,430.2,1221.4,480.1,1207.8,546.7L1207.8,546.7z M1232,549.1
	c30.6-35.8,34.1-116.4-22.6-160c-6.9,0.1-13.8,0.1-20.7,0.2C1232.9,425.1,1240.3,460.1,1232,549.1L1232,549.1z M1096.6,537.8
	c-6.8,9.9-4.1,18.2-0.4,22.1c0.1-8.4,7-17.2,25.4-28.3c27.9-16.9,58.1-15.6,74.7-39.6c12.1-17.6,6.3-43.4-14.4-73.6
	c11.1,18.5,12.4,46.2,0,61.9C1161.6,506.2,1112.7,514.5,1096.6,537.8L1096.6,537.8z M1098.8,503.8c14.1,0,22.5-2.8,32.8-8.2
	c-11.3,11.7-29.9,21.6-37.1,31.8c-10.6,15.1-10.2,25.2-18,37.9C1074.8,546.2,1069.6,527.5,1098.8,503.8L1098.8,503.8z M1084.8,509
	c-5.4,5.1-9.4,10.5-12,16.1c-7.8-4.9-13.2-11.4-16.6-19.1C1064.8,509.1,1074,510.9,1084.8,509L1084.8,509z M1099.4,568.5
	c6.1-23.6,33.1-39.9,74.7-52.1c0.6,17.4-8.5,34.2-28.7,50.5c7,0.5,13.9,1.1,20.9,1.6c-21.8,15.4-44.7,28.7-69.7,38.2
	c5.9-5.2,8.8-10.9,12.5-17.6c1.3-2.3-0.3-2.8-1.9-0.9c-12.4,15-24.8,24.2-40.6,17.2c3.6-3.4,5.6-7.6,5.1-11.1
	c-11.5,6.8-19.7,7.8-30.2,4.5c2.5-2.2,3.6-3.2,2.9-5.6c-25.8,4.5-25.8-4.3-40.6-5.4c1.5-5.2,48.4,7.8,79.2,1.3
	c-0.3,1.9-0.1,3.5,0.4,4.9c14-6.1,24.5-16,37.7-23.5c-8.9,1-23.1,10.7-32.8,12.7c-1.4-1.6-3.2-3.3-5.7-4.9c-0.7,1.4-1.1,2.7-1.2,4.1
	c-16,1.1-75.1-7.1-81.7-5.4c-2,0.5-2.9,4.2-3.6,5.8c-6.4,16.7-35.6,6.6-27.9-3.7c2.7-3.2,13.3-2.3,19.7-2.1c1.2-1.2,1.4-2.7-1.2-3.7
	c-9.2-1.9-25.9-5.3-23.3-18.5c2-10.3,22.1-4.1,25.3,9.4c2.8-5.7,17.8,0.5,36.8,3.1c15.3,2.1,33.7,0.4,47.2-1.8
	c1.4,4.8,3,7.7,4.1,10.3c4-4.7,7.5-10.3,10.8-16.9C1089.9,563.4,1094.1,567.4,1099.4,568.5L1099.4,568.5z M1166.2,556.4
	c22.6-11.4,35.5-31.5,39.8-59.4c-4.9,7.7-10.2,13.2-16.7,17.9c-6.8,5-9.2,9.9-10.5,15.6C1176.7,540,1172.2,548.5,1166.2,556.4
	L1166.2,556.4z M1354.5,676.6c-30.3,21.1-74.5,29.3-99.2,26.7c0.7,5.9,0.8,4.6-0.1,10c82.5-9.3,128.7-36.8,129.2-63.8
	c0.2-13-4.6-32.9-22.1-39.2C1379.2,626.6,1387.9,653.3,1354.5,676.6L1354.5,676.6z M1376.5,550.1c-24.7-2.3-9.5-26.9-20-36.7
	c-4.3-4-1.9-7.8,2.7-9.9c4.5-2,13.5-2.5,19.5,0.3c-4.2,1.2-3.8,4.3-2.6,5.4c11.3,10.3,3.8,30.8,10,38.1c-8.9-0.4-9.1-14.5-10.8-24.4
	c-1.3-7.7-4.9-9.8-11.4-9C1378.2,521.4,1365.2,538,1376.5,550.1L1376.5,550.1z M1153.7,605.3c0.6-7.4-3.4-8.7-9.4-7.4
	c-13,3-25,10.3-32,16.8c-8.9,8.4-5.9,16.4,0.4,14.8c6.3-1.6,26-8.5,25.6-16.6c3.5,3.9,3.4,8.9-5.2,14.9c-7.7,5.4-15.1,9.2-19.6,13.6
	c-6.1,6-6.3,9.4-5.5,13.1c1.7,7.9,8.2,8.3,13.7,7.4c6.9-1.2,12.4-4.3,17.4-8.8c3.4-3.1,5.4-6.3,4.9-10.7c5.7,3.6,3.5,11.1-2,15.5
	c-5.4,4.3-10.7,8.3-15.8,12.6c-2.3,3.2-2.2,8,0.4,11.8c2.7,4,4.8,4.2,10.5,4.6c3.6,0.3,6.6,0.9,9.9,1.1c2.7,0.2,2.7,2,0.5,3
	c-4.6,2.1-5.9,5.7-6.5,9.8c-1,6.8,3.5,18.2,2.9,26.5c-2.9,40.3-1.5,57.9,18.8,99.8c5.2,10.7,18.6,10.3,31.6,1.2
	c16-11.2,21.1-28.8,15.2-50.5c-3.3-12.1,0.8-21,7.8-28.7c16.5-18.1,26.2-35.8,18.9-54.6c-5.7-14.6-14.6-14.5-23.8-11.5
	c-10.3,9.3-12.7,24.3-11.7,39.2c-10-21.5-8.2-37.7,9.4-53.3c2.8-7.5-8.3-16.2-13.7-9.4c-4.4,5.6-12.3,10.3-18.5,10
	c8-8.7,15.8-22.1,13.1-28.7c-6.2-15.5-8.6-31.8,0.8-50.9c5.1-8.4-1.7-11-13.5-7.4C1166.2,586.5,1157.7,594.4,1153.7,605.3
	L1153.7,605.3z M1153.6,771.4c-4.2-10.7-2.5-16.5-0.5-22.2c3.8-11.2,10.1-21.8,11.5-34.6C1174.2,732.9,1160.1,754.3,1153.6,771.4
	L1153.6,771.4z M1211.4,825.5c3,10.5,0.7,20-8.2,24.1c-1.7,0.1-13.2-7.1-8-9C1202.7,837.3,1207.3,831.6,1211.4,825.5L1211.4,825.5z
	 M1219.4,842.9c6.7,13.7-7.4,57.7-18.3,66.6c-1.2,1.4-2.1,3.6-0.6,4.3c9.6,4.7,23.6-2.6,27.8-15.5c2.6-8.1,0.2-17.8,2-26.1
	c1-4.7,6.8-7.9,7.3-12.7c0.2-2.1-0.2-3.6-1.9-3.9c-6.2-1.1-6.8-11.7-12.9-14.4C1221.6,839.6,1218.8,840.3,1219.4,842.9L1219.4,842.9
	z M1167,931.6c3.3-2.8,10.6-9.8,7.6-14.5c-2.2-3.4-7.3-3.1-9.8-1.4c-5.2,3.5-7.9,8.4-7.6,14.2C1157.4,932.9,1163.4,934.1,1167,931.6
	L1167,931.6z M1189.7,931.6c-15.8,5.2-16.4-17.7-0.1-17.9c5.9,0.1,9.4,6.2,7.4,12.8C1195.9,930.2,1192.6,930.7,1189.7,931.6
	L1189.7,931.6z M1210.1,920.6c3-2.3,6-1.7,8.2,0.9c1.9,2.2,2.9,4.7,3.1,7.2c0.2,2.6-0.9,4-2.5,4.3c-4.4,0.9-8.2,1.1-11.4-0.1
	c-2.2-0.9-2.8-3-2.4-4.7C1205.9,925.2,1207.6,922.5,1210.1,920.6L1210.1,920.6z M1068.1,805.2c-2.3-1.9-2.2-4.6,0.2-4.7
	c1.8-0.2,12,10.5,34.3,8c1-0.1,1.8,0.8,2,2.6c0.6,4.7,3.6,6,9.3,10.4c2.8,2.3,1.6,5.3-5.9,9.4c-1.2,1.4-0.6,3.6,3.3,2.2
	c1.8-0.7,3.2-1.3,4.7-1.9c1.5-0.1,3.1,0.9,2.1,2.5c-6.2,10.1-13.6,22.1-17.4,33c-2.3,4.6-5.6,7.5-11.5,9c-1.8,0.5-3.6,0.8-5.3-1.2
	c-3.4-4.1-8.5-3.7-13.9-2.7c-1.1,0.5-2.3-3,0-4.1c13.5-6.2,23-18.6,29.9-34.7c0.9-2,0.7-3.9-0.8-4.7
	C1091.6,824.1,1074.6,810.7,1068.1,805.2L1068.1,805.2z M1040.7,887.9c-0.5-2.2,6-13.8,13.1-13.7c6.3,0-2.5,14.3-2.8,14.5
	C1047,891.7,1041.2,890,1040.7,887.9L1040.7,887.9z M1077.6,891.2c6,0.3,9.7-1.5,7.9-5.5c-3-6.7-7.4-9-11.5-8.9
	c-13.5,0.1-20.7,15.2-10.8,14.6C1068.1,891.3,1072.8,891.2,1077.6,891.2L1077.6,891.2z M1021.7,884.4c-0.5-1.7,5.5-10.9,12.1-10.9
	c5.9,0-2.3,11.3-2.6,11.4C1027.5,887.4,1022.1,886,1021.7,884.4L1021.7,884.4z M391.4,385.4c-0.3-6.6-2.5-11.5-5.5-11.7
	c-8.9-3.6-14.3-5.8-23.8-14.3c1.3-4.5-3.6-7.1-13.7-6.8c-16.8,0.5-33.6,1.8-48.2,8.8c-4.5-2.5-9-4.4-13.5-5.7
	c-5.5-0.1-7.8,10.3-4.7,17.4c3.6,0.9,8,1.5,12.4,2c-0.3-2.2,0-4.3,0.5-6.5c-2.4-2.5-5.7-4.3-9.2-6c4.9-0.2,9.3,1,13.3,3
	c-2.7,15.9,11.2,30,25.1,34.9c-1.2,4.7-2,9.4-2.7,14.2c4.4-3.3,9.2-6.4,15.8-8.6c-1.5,9.2,7,14.7,25.2,16.8c9,0.9,11.4,2.6,17.6,5.1
	c5.4,0.4,8.6-1.1,11.3-2.9c0.9-2.1,1.1-4.1,0.8-6.1c-0.4-3.5-8.3-1.2-18.1,2.5c-2.8-0.4-7.3-2-8.6-3.5c14.2-5.7,22.7-7.5,35.7-8
	c0-3.4-0.9-12.5-2.5-17C397.8,390.8,392.1,390.8,391.4,385.4L391.4,385.4z M361.9,375.9c-0.2,1.2-4.5,0.7-5.2-0.3
	c-3.2-4.3-7.4-7.3-13.3-8c-0.9-0.1-1.4-2.4,0-3.3c5.3,0.5,10.6,1.1,15.4,2.5c1.6,0.4,2.8,1.4,3.1,3.3
	C362.2,372.2,362.1,374.4,361.9,375.9L361.9,375.9z M365.1,418.4c-11.6,2.8-18.3-14.7-6.6-16.8C355.9,406.9,358,414.4,365.1,418.4
	L365.1,418.4z M348.7,406.9c-6-1.6-6.4-13.6-6.4-14c0.1-0.9,3.9-2.9,4.7-2.1C346.8,395.8,347.5,401.9,348.7,406.9L348.7,406.9z
	 M334.5,348.2c0.1-11.7-10.6-18.2-32.9-19c13.3,4.6,20.7,12.2,19.7,20.7C324.6,348.5,328.9,347.9,334.5,348.2L334.5,348.2z
	 M304.8,355.5c-9.8-19.7-37.1-15.2-45.5-27.1c17,8.5,38-2.4,55.2,21.9C311.2,351.5,308,353.2,304.8,355.5L304.8,355.5z M278.4,355.7
	c-10.7-7.9-18.7-11.7-42.3-13.9c8-9.5,29.9-5.8,56.4,8.8C284.1,349.1,279.1,350.6,278.4,355.7L278.4,355.7z M214.4,368.4
	c21.3-6.7,41.1-6.5,62.5,1.6c-0.7-2.7-0.3-6.8,0-9.3C247,340.3,227.8,347.8,214.4,368.4L214.4,368.4z M234.4,372.6
	c-28.6,13.9-67.3,49.1-57.4,81.6C181.1,424.9,219.8,380,234.4,372.6L234.4,372.6z M206.5,517.9c-9.2-74.5,21-145.9,71.8-135.8
	C217.6,340.6,155.7,488.5,206.5,517.9L206.5,517.9z M316.4,406.4c-18.8,36.3-17.7,66.7,20.5,100.5c-56.5-19.9-59-69.2-28.6-100.6
	c-10.6-6.6-17.2-15.2-21.5-25.6c2.9-0.5,4.5-1.4,7.3-1.9C295.3,384.7,301.5,398.7,316.4,406.4L316.4,406.4z M385.7,492.2
	c-60.8,20.5-91.4-37.7-56.6-75.5c6,5.6,12.1,8.7,18.7,9.8C307.2,454.3,331.7,499.7,385.7,492.2L385.7,492.2z M259.3,546.7
	c-31.7-50.9-26.4-121.5,23.4-148.1c3.2,2.7,7.1,5.2,11.9,7.4C252.2,430.2,245.7,480.1,259.3,546.7L259.3,546.7z M235.1,549.1
	c-30.6-35.8-34.1-116.4,22.6-160c6.9,0.1,13.8,0.1,20.7,0.2C234.2,425.1,226.8,460.1,235.1,549.1L235.1,549.1z M370.5,537.8
	c6.8,9.9,4.1,18.2,0.4,22.1c-0.1-8.4-7-17.2-25.4-28.3c-27.9-16.9-58.1-15.6-74.7-39.6c-12.1-17.6-6.3-43.4,14.4-73.6
	c-11.1,18.5-12.4,46.2,0,61.9C305.5,506.2,354.4,514.5,370.5,537.8L370.5,537.8z M368.3,503.8c-14.1,0-22.5-2.8-32.8-8.2
	c11.3,11.7,29.9,21.6,37.1,31.8c10.6,15.1,10.2,25.2,18,37.9C392.3,546.2,397.5,527.5,368.3,503.8L368.3,503.8z M382.3,509
	c5.4,5.1,9.4,10.5,12,16.1c7.8-4.9,13.2-11.4,16.6-19.1C402.3,509.1,393.1,510.9,382.3,509L382.3,509z M367.7,568.5
	c5.3-1.1,9.5-5.1,11.8-9.5c3.3,6.7,6.8,12.2,10.8,16.9c1.1-2.6,2.7-5.5,4.1-10.3c13.5,2.3,31.9,3.9,47.2,1.8
	c19.1-2.6,34-8.8,36.8-3.1c3.2-13.6,23.3-19.7,25.3-9.4c2.6,13.2-14.1,16.6-23.3,18.5c-2.7,1-2.5,2.5-1.2,3.7
	c6.4-0.3,17-1.2,19.7,2.1c7.7,10.3-21.5,20.4-27.9,3.7c-0.7-1.6-1.7-5.4-3.6-5.8c-6.7-1.7-65.7,6.5-81.7,5.4
	c-0.2-1.4-0.5-2.7-1.2-4.1c-2.5,1.6-4.3,3.3-5.7,4.9c-9.7-2-24-11.7-32.8-12.7c13.2,7.5,23.7,17.4,37.7,23.5c0.5-1.4,0.7-3,0.4-4.9
	c30.8,6.5,77.7-6.6,79.2-1.3c-14.8,1.1-14.8,9.9-40.6,5.4c-0.7,2.5,0.3,3.4,2.9,5.6c-10.4,3.3-18.6,2.3-30.2-4.5
	c-0.5,3.5,1.5,7.6,5.1,11.1c-15.8,7-28.1-2.3-40.6-17.2c-1.6-1.9-3.1-1.5-1.9,0.9c3.7,6.7,6.6,12.3,12.5,17.6
	c-25.1-9.4-48-22.7-69.7-38.2c7-0.5,13.9-1.1,20.9-1.6c-20.2-16.3-29.3-33.1-28.7-50.5C334.6,528.6,361.6,544.9,367.7,568.5
	L367.7,568.5z M496.2,537.7c5.5,0.5,6.4,5.2,5.9,7.8c-6.9-0.1-12.9,1.1-17.7,4c-2.8,1.4-5.6-0.1-6.1-1.7c-1.2-3.8,0.1-7.6,3.7-8.8
	C486.9,537.3,491.8,537.3,496.2,537.7L496.2,537.7z M300.9,556.4c-22.6-11.4-35.5-31.5-39.8-59.4c4.9,7.7,10.2,13.2,16.7,17.9
	c6.8,5,9.2,9.9,10.5,15.6C290.4,540,294.9,548.5,300.9,556.4L300.9,556.4z M112.6,676.6c30.3,21.1,74.5,29.3,99.2,26.7
	c-0.7,5.9-0.8,4.6,0.1,10c-82.5-9.3-128.7-36.8-129.2-63.8c-0.2-13,4.6-32.9,22.1-39.2C87.9,626.6,79.2,653.3,112.6,676.6
	L112.6,676.6z M90.6,550.1c24.7-2.3,9.5-26.9,20-36.7c4.3-4,1.9-7.8-2.7-9.9c-4.5-2-13.5-2.5-19.5,0.3c4.2,1.2,3.8,4.3,2.6,5.4
	c-11.3,10.3-3.8,30.8-10,38.1c8.9-0.4,9.1-14.5,10.8-24.4c1.3-7.7,4.9-9.8,11.4-9C88.9,521.4,101.9,538,90.6,550.1L90.6,550.1z
	 M313.4,605.3c-4-11-12.5-18.8-24.6-22.6c-11.8-3.7-18.7-1-13.5,7.4c9.4,19,7,35.4,0.8,50.9c-2.7,6.6,5.1,20,13.1,28.7
	c-6.2,0.2-14.1-4.4-18.5-10c-5.4-6.8-16.5,1.9-13.7,9.4c17.6,15.6,19.4,31.8,9.4,53.3c1-14.9-1.4-29.9-11.7-39.2
	c-9.2-3-18.1-3.2-23.8,11.5c-7.3,18.7,2.4,36.4,18.9,54.6c7,7.7,11.1,16.6,7.8,28.7c-5.9,21.6-0.8,39.3,15.2,50.5
	c13,9.1,26.4,9.4,31.6-1.2c20.4-41.9,21.7-59.5,18.8-99.8c-0.6-8.3,3.9-19.8,2.9-26.5c-0.6-4.1-1.9-7.8-6.5-9.8
	c-2.2-1-2.1-2.8,0.5-3c3.2-0.2,6.3-0.9,9.9-1.1c5.7-0.4,7.8-0.6,10.5-4.6c2.6-3.7,2.7-8.6,0.4-11.8c-5.2-4.3-10.4-8.3-15.8-12.6
	c-5.5-4.4-7.7-11.9-2-15.5c-0.5,4.4,1.5,7.6,4.9,10.7c5,4.5,10.5,7.6,17.4,8.8c5.5,1,12.1,0.5,13.7-7.4c0.8-3.7,0.6-7.1-5.5-13.1
	c-4.5-4.4-11.9-8.2-19.6-13.6c-8.6-6-8.7-11-5.2-14.9c-0.3,8.1,19.4,15,25.6,16.6c6.3,1.6,9.3-6.4,0.4-14.8c-7-6.5-19-13.9-32-16.8
	C316.9,596.6,312.9,597.9,313.4,605.3L313.4,605.3z M313.5,771.4c-6.5-17-20.6-38.5-10.9-56.8c1.3,12.8,7.6,23.4,11.5,34.6
	C316,754.9,317.6,760.7,313.5,771.4L313.5,771.4z M255.7,825.5c4.2,6.1,8.8,11.8,16.2,15.1c5.2,1.9-6.3,9.1-8,9
	C254.9,845.5,252.7,836,255.7,825.5L255.7,825.5z M247.7,842.9c0.6-2.6-2.2-3.2-3.4-1.6c-6.2,2.6-6.7,13.3-12.9,14.4
	c-1.7,0.3-2.2,1.8-2,3.9c0.5,4.7,6.3,8,7.3,12.7c1.8,8.3-0.6,18,2,26.1c4.2,12.9,18.2,20.2,27.8,15.5c1.5-0.8,0.6-2.9-0.6-4.3
	C255.1,900.6,241,856.6,247.7,842.9L247.7,842.9z M300.1,931.6c-3.3-2.8-10.6-9.8-7.6-14.5c2.2-3.4,7.3-3.1,9.8-1.4
	c5.2,3.5,7.9,8.4,7.6,14.2C309.7,932.9,303.7,934.1,300.1,931.6L300.1,931.6z M277.4,931.6c15.8,5.2,16.4-17.7,0.1-17.9
	c-5.9,0.1-9.4,6.2-7.4,12.8C271.2,930.2,274.5,930.7,277.4,931.6L277.4,931.6z M257,920.6c2.6,2,4.2,4.6,4.9,7.6
	c0.4,1.7-0.1,3.9-2.4,4.7c-3.2,1.2-7,1-11.4,0.1c-1.6-0.3-2.6-1.7-2.5-4.3c0.2-2.5,1.2-5,3.1-7.2C251,918.8,253.9,918.2,257,920.6
	L257,920.6z M399,805.2c-6.5,5.5-23.5,18.9-30.9,22.9c-1.5,0.8-1.7,2.8-0.8,4.7c7,16,16.4,28.5,29.9,34.7c2.3,1.1,1.1,4.6,0,4.1
	c-5.5-1.1-10.6-1.4-13.9,2.7c-1.7,2-3.5,1.7-5.3,1.2c-5.9-1.5-9.2-4.5-11.5-9c-3.9-10.9-11.2-22.9-17.4-33c-1.1-1.5,0.5-2.6,2.1-2.5
	c1.5,0.7,2.9,1.3,4.7,1.9c3.9,1.5,4.5-0.7,3.3-2.2c-7.6-4.2-8.8-7.2-6-9.4c5.7-4.3,8.7-5.6,9.3-10.4c0.2-1.8,1-2.7,2-2.6
	c22.3,2.6,32.6-8.1,34.3-8C401.2,800.6,401.3,803.3,399,805.2L399,805.2z M426.4,887.9c0.5-2.2-6-13.8-13.1-13.7
	c-6.3,0,2.5,14.3,2.8,14.5C420.1,891.7,425.9,890,426.4,887.9L426.4,887.9z M389.5,891.2c-6,0.3-9.7-1.5-7.9-5.5
	c3-6.7,7.4-9,11.5-8.9c13.5,0.1,20.7,15.2,10.8,14.6C399,891.3,394.3,891.2,389.5,891.2L389.5,891.2z M445.4,884.4
	c0.5-1.7-5.5-10.9-12.1-10.9c-5.9,0,2.3,11.3,2.6,11.4C439.6,887.4,445,886,445.4,884.4L445.4,884.4z M1279.6,918.3L1279.6,918.3
	l-5,41.8c9.5-2.3,21.5-1.4,34.2-0.5c15.5,1.2,32.4,2.4,45.4-2.4c-13.8-5.9-26.7-12.8-34.8-25.1l-4.1-6.2l6.5-3.6
	c8.6-4.8,16.3-10.4,23.4-16.7c2.4-2.2,4.8-4.4,7.1-6.8c-17.2,1.4-31.5-1.8-46.2-5c-11.8-2.6-23.8-5.2-37.5-5.4
	c-7.3-0.1-12.1,0.9-14.9,2.6c-0.9,0.5-1.4,1-1.6,1.4l-0.1,0.6l0,0c0.2,0.7,0.8,1.4,1.7,2.2c1.6,1.3,5.1,2.6,8.6,3.9
	C1272.3,903,1282.4,906.9,1279.6,918.3L1279.6,918.3z M1095.1,928.1c24.4,9.6,49.8,16.8,76.6,21C1144,953.4,1101,940.8,1095.1,928.1
	L1095.1,928.1z M1113.4,945.1c3.4,11.9,33.6,20.2,53.6,14.7C1148.2,956.9,1130.4,951.9,1113.4,945.1L1113.4,945.1z M1031.4,916
	c-0.6-5-1.5-9.5-5-12.4c-4.8-3.8-13.3-6.1-25.3-5.1c-15.7,1.3-28.1,0.4-36.2-0.7c-4.7-0.6-7.2-1-7.2-1.1c0-1.4,3.6-3.2,10-5
	c9.2-2.7,22.8-4.3,39.7-4.6l2.6,0c1.9,6.3,14.6,6.5,20.9,4.9c-0.7,3.5,11.7,6.9,20.2,2.6c0.2,1.6,6.4,2.8,12.5,1.1
	c16.5,5.1,29.5,11.5,44.7,18.4c10.7,4.9,21.3,9.7,32.2,13.8c1.3,0.5,6.4,2.3,7.6,2.8c0.6,6.1,15.5,8.8,24.1,5.9
	c2.7,1.1,9,2.2,16.5,1c8.2,0.7,9.5,0.5,17.5,0.2c19.7-0.8,38.7-4.4,56.7-8.4l-5.2,43.3l0,0l-1.6,12.7c-17.6,5.9-36,9.7-54.8,11
	c-19.2,1.4-38.6,0.2-57.7-3.9c-13.4-2.9-29.2-10.6-44.7-18.1c-25.2-12.3-49.8-24.2-67.5-17.9V916L1031.4,916z M187.7,918.3
	L187.7,918.3l5,41.8c-9.5-2.3-21.5-1.4-34.2-0.5c-15.5,1.2-32.4,2.4-45.4-2.4c13.8-5.9,26.7-12.8,34.8-25.1l4.1-6.2l-6.5-3.6
	c-8.6-4.8-16.3-10.4-23.4-16.7c-2.4-2.2-4.8-4.4-7.1-6.8c17.2,1.4,31.5-1.8,46.2-5c11.8-2.6,23.8-5.2,37.5-5.4
	c7.3-0.1,12.1,0.9,14.9,2.6c0.9,0.5,1.4,1,1.6,1.4l0.1,0.6v0c-0.2,0.7-0.8,1.4-1.7,2.2c-1.6,1.3-5.1,2.6-8.6,3.9
	C195,903,184.9,906.9,187.7,918.3L187.7,918.3z M377.9,928.1c-24.4,9.6-49.8,16.8-76.7,21C329,953.4,372,940.8,377.9,928.1
	L377.9,928.1z M359.6,945.1c-3.4,11.9-33.6,20.2-53.6,14.7C324.8,956.9,342.6,951.9,359.6,945.1L359.6,945.1z M434.3,916v40.5
	c-17.7-6.4-42.3,5.6-67.5,17.9c-15.5,7.5-31.3,15.2-44.7,18.1c-19,4.1-38.5,5.3-57.7,3.9c-18.7-1.4-37.2-5.2-54.7-11l-1.6-12.7l0,0
	l-5.2-43.3c18,4,37,7.6,56.7,8.4c7.8,0.3,15.7,0.2,23.6-0.4c5.8,1.1,12.7,0.2,17.9-0.9c11,1.6,17.7-0.9,19.4-6.8
	c1.6-0.5,3.2-1.1,4.8-1.7c10.9-4.1,21.5-9,32.2-13.8c15.3-6.9,30.8-14,47.4-19.1c4.9-0.5,9.7-1.3,13.6-2.3
	c6.3,1.3,16.4,1.8,19.2-0.3c7.4,0.1,15.3,1,17.2-5.3c1.2,0,2.3,0,3.5,0c16.9,0.4,30.5,2,39.7,4.6c6.4,1.9,10,3.6,10,5
	c0,0.1-2.5,0.4-7.2,1.1c-8.1,1.1-20.5,2-36.2,0.7c-12.1-1-20.6,1.2-25.3,5.1C435.7,906.4,434.8,911,434.3,916L434.3,916z
	 M930.2,1016.7c45.1-7.2,81.2-13.3,88.4-23.1c0-20.9-0.2-41.1-0.6-62.1c-3.9,2.2-8.7,4.1-14.4,5.6c-36.5,9.8-79.7,16.8-123.6,21.5
	c-94,9.9-200.9,9.9-294.9,0c-43.9-4.6-87.1-11.7-123.6-21.5c-5.6-1.5-10.4-3.4-14.3-5.6c-0.4,21-0.6,41.2-0.6,62.1
	c7.2,9.8,43.3,15.9,88.4,23.1C663.4,1037.2,801.9,1037.2,930.2,1016.7L930.2,1016.7z M989.9,968.6l3.6-5c-3.9-1.8-9-2.1-15.4-0.8
	c-4.8,1-8.4,2.5-10.9,4.5c-2.5,2-3.7,4.4-3.7,7c0,1.3,0.3,2.4,0.9,3.2c0.6,0.8,1.6,1.4,2.8,1.8c1.3,0.4,2.9,0.5,4.8,0.5
	c1.9-0.1,4.1-0.3,6.7-0.7c1.4-0.2,2.7-0.4,3.8-0.6c1.1-0.2,2-0.2,2.8-0.2c0.8,0,1.4,0.1,1.8,0.4c0.4,0.2,0.6,0.7,0.6,1.2
	c0,1.1-0.7,2.2-2.1,3.1c-1.4,1-3.5,1.7-6.1,2.3c-2.5,0.5-4.8,0.6-7.1,0.4s-4.5-0.8-6.8-1.8l-3.5,5c2.5,1.3,5.1,2,7.9,2.2
	c2.8,0.2,5.8,0,9.1-0.6c5-1,8.8-2.6,11.4-4.7c2.6-2.1,3.9-4.7,3.9-7.6c0-1.3-0.2-2.4-0.7-3.2c-0.5-0.8-1.2-1.5-2.3-1.9
	c-1-0.4-2.3-0.7-3.8-0.7c-1.5-0.1-3.3,0-5.4,0.2c-1,0.1-2,0.2-2.9,0.4c-0.9,0.1-1.8,0.3-2.6,0.4c-0.8,0.1-1.6,0.2-2.3,0.3
	c-0.7,0.1-1.4,0.1-2,0.1c-1.5-0.1-2.3-0.5-2.3-1.5c0-0.9,0.7-1.7,2.1-2.5c1.4-0.8,3.5-1.4,6.2-2c2.1-0.4,4-0.6,5.9-0.5
	C986.2,967.5,988,967.9,989.9,968.6L989.9,968.6z M955,994.5l6.5-1.1l-14-24.4l-7.9,1.3l-14,29l6.5-1.1l3-6.2l16.9-2.8L955,994.5
	L955,994.5z M943.5,974.5l5.8,10l-11.6,1.9L943.5,974.5L943.5,974.5z M916.4,979.1v21.6l-6.4,0.9v-21.6l-12.6,1.8v-5.1l31.6-4.6v5.1
	L916.4,979.1L916.4,979.1z M886,1004.6v-26.7l6.4-0.8v26.7L886,1004.6L886,1004.6z M854.5,1008.1v-26.7l6.5-0.6v21.6l20.5-2v5.1
	L854.5,1008.1L854.5,1008.1z M843.9,1009l-3.1-5.5l-17.1,1.4l-3.1,6l-6.5,0.5l14.2-27.9l8-0.7l14.1,25.5L843.9,1009L843.9,1009z
	 M832.3,988.1l5.8,10.5l-11.7,1L832.3,988.1L832.3,988.1z M810.7,1002.7c0,1.4-0.4,2.7-1.1,4c-0.7,1.2-1.8,2.3-3.2,3.3
	c-1.4,0.9-3.1,1.7-5.1,2.3c-2,0.6-4.2,1-6.7,1.1c-2.5,0.1-4.8,0-6.7-0.4c-2-0.4-3.7-1-5.1-1.8c-1.4-0.8-2.5-1.8-3.2-2.9
	c-0.8-1.2-1.1-2.4-1.1-3.8v-17.7l6.5-0.3v16.8c0,1.6,0.8,2.9,2.5,3.9c1.7,0.9,4.1,1.3,7.1,1.1c3.1-0.2,5.5-0.8,7.2-1.9
	c1.7-1.1,2.5-2.5,2.5-4.1v-16.8l6.5-0.3V1002.7L810.7,1002.7z M759,1013.9c-0.9,0.2-1.7,0.3-2.5,0.4c-0.8,0.1-1.7,0.2-2.5,0.2
	c-2.7,0-5.2-0.3-7.6-1c-2.3-0.7-4.3-1.8-6-3.2c-1.5-1.2-2.7-2.7-3.4-4.3c-0.8-1.6-1.1-3.4-1.1-5.4c0-3.9,1.6-7.2,4.6-9.8
	c1.7-1.4,3.7-2.5,6-3.3c2.3-0.8,4.8-1.2,7.5-1.3c2.7,0,5.2,0.3,7.5,1.1c2.3,0.7,4.3,1.8,6,3.2c3.1,2.5,4.7,5.8,4.7,9.6
	c0,2.5-0.6,4.8-1.9,6.8c-1.3,2-3.2,3.7-5.7,5l3.6,3.7l-5.7,1.8L759,1013.9L759,1013.9z M760.6,1007.8l-3.3-3.3l-5.8,1.7l3,3.1
	l-0.5,0c-1.8,0-3.4-0.2-4.8-0.6c-1.4-0.4-2.6-1-3.6-1.8c-1-0.8-1.8-1.7-2.3-2.8c-0.5-1.1-0.8-2.3-0.8-3.7c0-1.3,0.3-2.5,0.8-3.7
	c0.5-1.1,1.3-2.1,2.3-2.9c1-0.8,2.2-1.5,3.6-1.9c1.4-0.5,3-0.7,4.7-0.7c1.7,0,3.3,0.2,4.7,0.6c1.4,0.4,2.6,1,3.6,1.8
	c1,0.8,1.8,1.7,2.3,2.8c0.5,1.1,0.8,2.3,0.8,3.7c0,1.7-0.4,3.2-1.2,4.5C763.5,1005.9,762.2,1007,760.6,1007.8L760.6,1007.8z
	 M708.1,992.2v21.6l-6.5-0.2V992l-12.7-0.3v-5.1l31.9,0.8v5.1L708.1,992.2L708.1,992.2z M655.7,1011.7V985l28.9,1.5v5.1l-22.4-1.2
	v5.5l15.6,0.8v5.1l-15.6-0.8v5.9l23.5,1.3v5.1L655.7,1011.7L655.7,1011.7z M629.8,1010v-19l-0.1,0l-12.7,14.1l-12.7-16.5l-0.1,0v19
	l-6.5-0.6v-26.7l7.6,0.7l11.7,15.3l11.7-13.1l7.6,0.7v26.7L629.8,1010L629.8,1010z M561.8,1002.7V976l28.7,3.6v5.1l-22.3-2.8v5.5
	l15.5,1.9v5.1l-15.5-1.9v5.9l23.3,2.9v5.1L561.8,1002.7L561.8,1002.7z M538.6,972.4c2.4,0.4,4.7,1.1,6.6,2c2,1,3.6,2.2,5,3.6
	c1.4,1.4,2.4,3,3.2,4.8c0.7,1.8,1.1,3.7,1.1,5.8c0,3.9-1.6,6.9-4.7,8.9c-1.3,0.9-2.9,1.5-4.7,1.8c-1.8,0.3-3.7,0.3-5.7,0l-18.6-3
	v-26.7L538.6,972.4L538.6,972.4z M539,994l-11.7-1.9v-16.5l11.7,1.9c1.3,0.2,2.5,0.6,3.6,1.2c1.1,0.6,2,1.3,2.8,2.2
	c0.8,0.9,1.4,1.9,1.8,3c0.4,1.1,0.7,2.3,0.7,3.5c0,1.7-0.5,3.1-1.6,4.4c-0.8,0.9-1.9,1.6-3.1,2C541.7,994.2,540.4,994.3,539,994
	L539,994z M506.2,993.7l6.4,1V968l-6.4-1V993.7L506.2,993.7z M478.7,966.6l22,4.6v-5.1l-28.3-5.9v26.7l6.4,1.3v-11l15.3,3.2v-5.1
	l-15.3-3.2V966.6L478.7,966.6z M1000.7,495.8l0.2,58.9c15.7,7.4,31.9,12.3,49.5,9.2c-6-12-13.8-14.9-24.6-21.3
	c2.7-1.1,5.2-2.6,7.4-5.3C1030.4,528.3,1014.4,510.1,1000.7,495.8L1000.7,495.8z M464,555.7l0-57.3c-13.1,13.9-27.5,30.5-30,38.8
	c2.1,2.7,4.7,4.2,7.4,5.3c-10.8,6.5-18.6,9.4-24.6,21.3C433.5,566.7,449,562.5,464,555.7L464,555.7z M1153.7,919.2
	c-2.7-0.8-5.4-1.8-8-2.8c-10.6-4-21-8.7-31.4-13.5c-6.9-3.1-13.9-6.3-20.9-9.3c6.4-6.7,13.4-18.9,14.8-23.4
	c5.1-13.3,10.9-26.4,18.5-39.4c5.7-9.7,5.2-16.7-0.8-20.5c-4.1-3.8-4.5-7.1-0.4-9.8c4.7-2.5,9.4-5,13.5-8.6
	c4.5,16.8,13.2,44.5,32,49.2c16.7,4.2,29.4,11.6,37.5,19.3c6.1,8.9,0,29.6-19.9,47.6c-2.4,2.1-5,2.8-7.2,3
	c-6.6,0.8-7.7-3.9-15.7-1.5C1161.9,910.6,1156.9,914,1153.7,919.2L1153.7,919.2z M1236.6,898.5l-2.4,24l-3.6,0.6
	c-0.5-3.3-1.6-6.4-3.1-8.9C1230.6,909,1233.7,903.7,1236.6,898.5L1236.6,898.5z M221.9,881.5c-5.7-12.4-10.1-25.1-12.2-38.3
	c-0.6-3.6,0.6-5,2.6-3.6c13.3,11.6,23.2,1.9,30.2-24.3c4.6-17.4-3.5-31.2-22-43.8c-1.9-1.3-1.8-1.9-0.1-2.9c2-1,4-2.5,5.2-4.2
	c-2.8-4.6-4.9-9.4-6.8-14c-3.3-7.8-2.2-19.1-2.9-20.9c-1.7-5-3.3-7.1-6.8-8.2c-32.3-6.6-72.7-16.6-96.8-29.1
	c-11.7-6.1-31.2-20-34.5-40.2c-9-54.2,71.4-56,78.4-91.9c3.5-18.1-9.4-40-32.4-45.9c-6.5-1.7-10,4-7.4,11.5
	c6.8,19.4-4.2,37-18.7,39.8c-20.8,4-34.6-6.2-45.7-23c-0.8-1.9,1.3-2.9,2.7-1.8c7.3,5.4,15.2,8.7,18.5,5.7c3.9-3.6,6.5-12,4.5-25
	c-4.7-31.6,17.7-32.9,45.3-23.5c47.3,16.1,61.2,61.3,32.4,91.7c-12.3,13-30.2,21.4-41.9,31.7c-10.3,9-16,19.8-7.7,33.3
	c13.9,22.6,50.2,41.6,107.1,36.1c5.1-25.3,34.1-31.7,36.1-62.4c2.1-32.4-29.9-60.7-36.9-96c-2,4.7-4.7,8.3-9.4,8.6
	c-4-18.9-34.2-36.9-21.7-80c-3.7,4-6.5,8.2-8.6,11.1c-11.2-19.5-9.1-55.9,29.1-84.1c-4.5,0-8.1,0.9-11.5,2.1
	c6.5-16,15.9-30.6,37.7-39c-1.7-1.2-3.8-2.2-6.6-2.9c5.8-12.2,14.6-18.6,27.5-17.6c-1.4-4.2-1.8-11.8-1-16.5
	c32.5,16.4,40.6,6.2,64.7,7c19.2,0.6,34.5,8.1,30.7,23.3c7.8-0.3,26.4,0.8,27.9,6.2c0.7,2.4,0.9,6.4,0.4,9.7
	c11,3.5,16.3,7.4,26.7,11.5c3,0.1,5.5,1.5,7,3.7c3.3,4.9,5,18.1,1.8,18.3c1.1,5,2.2,9.7,2.2,14.8c0.1,4.3-2.1,6.3-7,6.2
	c0.8,5.7,1.6,11.5,2.5,17.2c-1.5,5-8.1,12.1-12.6,11.1c-12.5-0.7-38.3-8.4-45.5,4.6c-5,9.2,3.4,23.8,17.6,26.6
	c-1.3,3.9-3.6,7.3-10.2,9.2c11.8,4.5,27.3,4.9,40.4-0.3c-2.2,7.2-5.6,14.1-12.7,19.7c7,1.9,13.9,1.2,20.9-0.8
	c8.6-10.8,42.2-40.1,50.8-50.9c2.6-3.5,0.2-8.5,2.9-14.4c1.9-4.1,4.5-7.7,7.8-10.6l-0.1-204.5l536.1,0.1l0.6,202.4l0.9,0.6
	c4.2,3,7.5,7.3,9.7,12.1c2.7,5.8,0.3,10.9,2.9,14.4c8.6,10.8,42.2,40.1,50.8,50.9c7,2,13.9,2.7,20.9,0.8
	c-7.1-5.6-10.5-12.5-12.7-19.7c13,5.2,28.5,4.8,40.4,0.3c-6.5-1.9-8.9-5.3-10.2-9.2c14.2-2.8,22.6-17.4,17.6-26.6
	c-7.1-13-32.9-5.4-45.5-4.6c-4.5,1-11-6.1-12.6-11.1c0.8-5.7,1.6-11.5,2.5-17.2c-4.9,0.1-7-1.9-7-6.2c0-5.1,1.1-9.8,2.2-14.8
	c-3.2-0.2-1.5-13.4,1.8-18.3c1.5-2.2,4-3.6,7-3.7c10.4-4.1,15.7-8,26.7-11.5c-0.5-3.3-0.3-7.3,0.4-9.7c1.4-5.4,20.1-6.5,27.9-6.2
	c-3.8-15.2,11.6-22.6,30.7-23.3c24.1-0.8,32.2,9.4,64.7-7c0.8,4.8,0.4,12.3-1,16.5c12.9-1,21.7,5.5,27.5,17.6
	c-2.8,0.7-4.9,1.7-6.6,2.9c21.9,8.4,31.2,22.9,37.7,39c-3.4-1.1-7-2-11.5-2.1c38.3,28.2,40.3,64.6,29.1,84.1
	c-2.1-2.9-4.9-7.1-8.6-11.1c12.4,43.1-17.8,61.1-21.7,80c-4.8-0.3-7.4-3.9-9.4-8.6c-7,35.3-39,63.6-36.9,96
	c2,30.7,31,37.1,36.1,62.4c56.9,5.5,93.2-13.5,107.1-36.1c8.3-13.5,2.6-24.3-7.7-33.3c-11.7-10.3-29.6-18.7-41.9-31.7
	c-28.8-30.4-14.9-75.6,32.4-91.7c27.6-9.4,50-8.1,45.3,23.5c-1.9,13,0.7,21.4,4.5,25c3.3,3.1,11.2-0.3,18.5-5.7c1.4-1,3.5,0,2.7,1.8
	c-11.2,16.8-24.9,27-45.7,23c-14.4-2.8-25.5-20.4-18.7-39.8c2.6-7.5-0.9-13.2-7.4-11.5c-23,6-35.9,27.9-32.4,45.9
	c7,35.9,87.4,37.8,78.4,91.9c-3.3,20.2-22.8,34.1-34.5,40.2c-24.1,12.5-64.5,22.5-96.8,29.1c-3.5,1.1-5.1,3.2-6.8,8.2
	c-0.7,1.8,0.4,13-2.9,20.9c-1.9,4.6-4,9.4-6.8,14c1.2,1.7,3.3,3.2,5.2,4.2c1.7,0.9,1.8,1.6-0.1,2.9c-18.5,12.6-26.6,26.4-22,43.8
	c7,26.2,16.9,35.9,30.2,24.3c2-1.4,3.2,0,2.6,3.6c-2,12.9-6.3,25.3-11.8,37.4c4.8-2.7,11.9-4.5,21.9-4.4c15.3,0.2,27.9,3,40.2,5.7
	c18.4,4,36,7.9,59.4,1.8l19.5-5.1l-12.3,15.9c-6.4,8.3-13.4,15.9-21.2,22.8c-5.8,5.2-12.1,9.9-18.8,14.2
	c15.1,14.7,25,17.8,47.2,27.4c-21,27-41.7,24.8-74.2,22.3c-15.1-1.1-28.7-2.2-35.1,2.2l-2,15.7l-0.5,4.2l-4,1.4
	c-19.9,7.1-41,11.6-62.3,13.2c-20.4,1.5-41.2,0.2-61.5-4.2c-15-3.3-31.5-11.3-47.8-19.2c-25.7-12.5-50.6-24.6-61.7-14.1v20v1.6
	l-0.7,1.5c-7.3,14.9-47.5,25.8-98.5,33.9c-126.9,20.2-273.4,20.2-400.3,0c-51-8.1-91.2-19-98.5-33.9l-0.7-1.5v-1.6v-20
	c-11.1-10.5-36,1.6-61.7,14.1c-16.3,7.9-32.8,15.9-47.8,19.2c-20.3,4.4-41.1,5.7-61.5,4.2c-21.4-1.6-42.4-6.1-62.3-13.2l-4-1.4
	l-0.5-4.2l-2-15.7c-6.3-4.4-20-3.4-35.1-2.2c-32.4,2.4-53.2,4.7-74.2-22.3c22.2-9.6,32.1-12.7,47.2-27.4c-6.7-4.3-13-9-18.8-14.2
	c-7.8-6.9-14.8-14.6-21.2-22.8l-12.3-15.9l19.5,5.1c23.4,6.1,41,2.2,59.4-1.8c12.3-2.7,24.9-5.5,40.2-5.7c10-0.1,17.2,1.6,22,4.4
	C221,880.9,221.4,881.2,221.9,881.5L221.9,881.5z M236.5,923.2c-1.5-0.2-3.1-0.5-4.6-0.7l-2.6-26.3c3.3,6,6.7,12,10.3,18
	C238.1,916.7,237,919.9,236.5,923.2L236.5,923.2z M373.4,893.4c-7.3,3.1-14.5,6.4-21.7,9.6c-10.5,4.7-20.8,9.5-31.4,13.5
	c-2.4,0.9-4.8,1.7-7.2,2.5c-3.2-5.1-8.1-8.4-11.8-9.5c-8-2.4-9,2.3-15.7,1.5c-2.1-0.2-4.8-0.9-7.2-3c-19.9-18-26-38.7-19.9-47.6
	c8.2-7.6,20.8-15.1,37.5-19.3c18.8-4.7,27.4-32.4,32-49.2c4.2,3.6,8.8,6.1,13.5,8.6c4.1,2.7,3.7,6-0.4,9.8
	c-6.1,3.8-6.5,10.8-0.8,20.5c7.6,12.9,13.3,26,18.5,39.4C360.4,874.7,367.1,886.6,373.4,893.4L373.4,893.4z M522,898.3l0,37.5
	c77.9,24.6,350.2,21.4,422.1,1.7v-39.2h0.2l0-0.3c0.2-8.3,7.3-14.3,19.9-18c10.3-3,25.1-4.8,43.2-5.2c4.2-0.1,8.4,0,12.4,0.2
	c6-6.5,16.7-11.5,27.6-6.3c4-3.4,10.9-3.9,16.4-0.8c8.6-7.4,18.2-16.5,21.7-25.5c3.8-9.7,2.1-15.3-4.5-19.3
	c-8.5-5.6-21.7-13.1-25-18.7c-8.4-19.1-8.8-65.2-5.3-74.8c0.4-1.1,1.2-1.3,2-0.2c3.7,4.5,9,6.3,13.6,4.3
	c16.4-7.1,29.9-19.4,49.2-21.3c12.6-1.3,17.1-6.6,14.8-13.9c-3.1-10-15.4-14.4-27.5-22.6c-18.2-12.3-31.9-44.8-39.3-64.8
	c-24.3-3.7-47.8-17.7-62.5-17.7l0.3,101.6c-0.6,132.6-235.1,130.9-268.6,204.8c-33.4-73.9-268-72.2-268.5-204.8L464,593.4
	c-14.8,1.2-37.2,14.1-60.4,17.6c-7.5,20-21.1,52.4-39.3,64.8c-12.1,8.2-24.4,12.6-27.5,22.6c-2.3,7.4,2.2,12.7,14.8,13.9
	c19.3,2,32.8,14.2,49.2,21.3c4.6,2,9.9,0.2,13.6-4.3c0.8-1,1.6-0.9,2,0.2c3.5,9.7,3.1,55.7-5.3,74.8c-3.3,5.6-16.5,13.1-25,18.7
	c-6.6,4-8.3,9.6-4.5,19.3c3.6,9,13.2,18.1,21.7,25.5c5.5-3.1,12.4-2.6,16.4,0.8c10.9-5.2,21.6-0.3,27.6,6.2
	c3.7-0.2,7.5-0.2,11.4-0.1c18.1,0.4,32.9,2.2,43.2,5.2c12.6,3.7,19.7,9.7,19.9,18l0,0.3H522L522,898.3z M589.5,176.5
	c-6.2-9.2-10.6-19.3-14.3-29.8c2.8-1.4,5.7-2.8,8.5-4.1L562.4,91c-1.1,0.2-2.2,0.4-3.3,0.4c-8.5,0-15.3-6.9-15.3-15.3
	c0-8.5,6.9-15.3,15.3-15.3s15.3,6.9,15.3,15.3c0,4.5-1.9,8.5-5,11.4c15.8,12.3,32.7,23.6,51.5,32.9c8.6-15.9,15.6-33.9,21.3-53.8
	c-9.8,0-17.7-8-17.7-17.7c0-9.8,7.9-17.7,17.7-17.7c9.8,0,17.7,7.9,17.7,17.7c0,7-4.1,13.1-10,16c11.4,15.6,24.1,29,39.1,38
	C709,83.1,721,60.3,727.5,35.4c-7.6-2.1-13.2-9.1-13.2-17.4c0-10,8.1-18,18-18c10,0,18,8.1,18,18c0,8.3-5.6,15.3-13.2,17.4
	c6.5,24.9,18.5,47.6,38.4,67.2c15-9.1,27.7-22.5,39.2-38.1c-5.8-2.9-9.7-8.9-9.7-15.8c0-9.8,7.9-17.7,17.7-17.7
	c9.8,0,17.7,7.9,17.7,17.7c0,9.8-7.9,17.7-17.7,17.7l-0.3,0c5.7,19.9,12.7,38,21.3,53.8c18.9-9.3,35.9-20.6,51.7-33
	c-3-2.8-4.9-6.8-4.9-11.2c0-8.5,6.9-15.3,15.3-15.3s15.3,6.9,15.3,15.3c0,8.5-6.9,15.3-15.3,15.3c-1.3,0-2.5-0.2-3.7-0.5l-21.4,51.7
	c2.8,1.4,5.7,2.7,8.5,4.1c-2.9,12-8.1,22.5-15.5,31.5C790.5,224.9,626.4,209.7,589.5,176.5L589.5,176.5z M125.3,1287.5
	c0-18.4-12.5-30.8-40.3-37.7l-27.4-6.8c-14.2-3.6-24.2-7.8-24.2-15.5c0-7.8,10.6-14,31.8-14c21.6,0,42.8,6.6,50,24.6v-34.8
	c-11-4.7-30.1-8.1-49-8.1c-34.1,0-64.5,11-64.5,38.4c0,16.3,11.4,28.8,37.8,35.4l27.1,6.8c13.1,3.2,24.4,7.8,24.4,16.3
	c0,11.4-18.5,14.9-34.6,14.9c-23.5,0-46.9-9.3-56.2-32v40.3c13.2,6.2,34.3,10.8,56.8,10.8C95.4,1326.1,125.3,1314.5,125.3,1287.5
	L125.3,1287.5z M402.4,1197.4h-54.1c0,0,10.4,0.6,10.4,11c0,3-0.9,6.8-3,11.5l-30.5,67.4l-30.3-65.7c-2.5-5.1-3.2-9.3-3.2-12.5
	c0-11,10.8-11.7,10.8-11.7h-56.2c0,0,11.5,1.7,11.5,13.6c0,3.2-0.8,7.4-3,12.3l-29.1,64l-30.1-67.4c-2.3-4.9-3.4-8.7-3.4-11.7
	c0-9.8,9.6-10.8,9.6-10.8h-64.1c0,0,12.7,1.1,23.3,24l46.9,102h25.7l36.9-81.2l37.5,81.2h25.7l45.4-100.9
	C389.9,1198.5,402.4,1197.4,402.4,1197.4L402.4,1197.4z M474.2,1323.4c0,0-11.9-0.6-11.9-20.1v-84.6c0-19.7,11.9-21.4,11.9-21.4
	h-57.3c0,0,12.3,1.7,12.3,21.4v84.6c0,19.5-12.3,20.1-12.3,20.1H474.2L474.2,1323.4z M640.4,1234.7l-2.5-37.3H496.1l-2.8,37.3
	c4.9-15.3,12.7-19.7,31.2-19.7h25.7v86.9c0,21.6-12.1,21.6-12.1,21.6H596c0,0-12.3-0.2-12.3-21.6V1215h25.9
	C628.9,1215,635.9,1220.7,640.4,1234.7L640.4,1234.7z M798.6,1278.6c-8.9,17.6-18,27.1-37.7,27.1h-51.1l82.3-108.2H661.9v41.1
	c4.2-14,11-23.5,33.9-23.5h44.3l-82.5,108.4h136.1L798.6,1278.6L798.6,1278.6z M960.8,1289.6c0-15.9-12.5-31.6-34.8-33.5
	c17.2-2.6,27.2-15.9,27.2-28.8c0-14.8-13.1-29.9-42.8-29.9H817c0,0,13.8,0.8,13.8,22v81.6c0,21.8-11.9,22.5-11.9,22.5H915
	C946.6,1323.4,960.8,1306.6,960.8,1289.6L960.8,1289.6z M918.4,1231.3c0,10-5.7,18.9-20.8,18.9h-33.7V1215c7.2,0,33.3,0,33.3,0
	C912.4,1215,918.4,1223.1,918.4,1231.3L918.4,1231.3z M926,1287.7c0,10-5.5,18-25,18h-37.1v-38.4h34.4
	C918.2,1267.2,926,1274.8,926,1287.7L926,1287.7z M1119.9,1283.5c-7.6,14.2-18.2,22.1-37.5,22.1h-51.5v-36.9h44.5
	c18,0,19.1,10.6,19.1,10.6v-39.2c0,0-1.3,10.8-19.3,10.8h-44.3v-36h48.3c18.7,0,27.4,7.2,30.1,20.4v-38H982.5
	c0,0,15.1,0.8,15.1,21.2v81.7c0,22.3-13.1,23.1-13.1,23.1h127.3L1119.9,1283.5L1119.9,1283.5z M1297.1,1323.4
	c-0.9-0.2-14.8-2.3-26.1-15.1l-25-28.6c-6.2-7.2-8.9-8.7-12.7-10h2.6c20.2,0,40.5-12.3,40.5-34.8c0-20.2-18.9-37.5-55.4-37.5h-82.5
	c0,0,14.2,1.1,14.2,22.1v82.5c0,21-12.3,21.4-12.3,21.4h56c0,0-12.3-0.4-12.3-21.4v-27.6h13.4c5.7,0,9.8,3.4,16.5,11.5l30.3,37.5
	H1297.1L1297.1,1323.4z M1242.8,1235.3c0,12.9-9.5,21.8-27.1,21.8h-31.8v-42h30.8C1231.8,1215,1242.8,1222.6,1242.8,1235.3
	L1242.8,1235.3z M1467.1,1266.7h-58.3c0,0,13.4,0.9,13.4,18.4v19.5c-6.4,1.9-16.1,3.2-23.1,3.2c-31,0-53.2-18-53.2-47.3
	c0-33.1,27.2-47.1,54.7-47.1c23.3,0,46.7,10,53.6,27.8V1202c-14.8-5.5-33.7-7.6-50-7.6c-59,0-93.3,31.4-93.3,69.1
	c0,32,26.1,62.8,80.4,62.8c17.2,0,46.7-2.1,62.8-7.6v-34.3C1454.2,1267.2,1467.1,1266.7,1467.1,1266.7z"/>
</svg>
