<svg id="Слой_1" data-name="Слой 1" xmlns="http://www.w3.org/2000/svg" viewBox="0 0 1355.26 1197.67"><defs><style>.cls-1{fill:#fff;fill-rule:evenodd;}</style></defs><title>switzberg_logo</title><path class="cls-1" d="M532.07,141.68q-1.21-3.06-2.3-6.18l7.76-3.71,1.76,4.24-7.87,3.81.65,1.84ZM502.78,78.13a14,14,0,0,1-2.42-7.89,14.33,14.33,0,0,1,28.35-2.82,14.16,14.16,0,0,0-25.93,10.71Zm24.87,5.16A14.44,14.44,0,0,1,526,85.06a273.2,273.2,0,0,0,47.57,30.35c8-14.64,14.43-31.35,19.71-49.72a16.38,16.38,0,0,1-2.2-.16,240.37,240.37,0,0,1-18.68,45.54,271.85,271.85,0,0,1-44.75-27.79Zm49.41-32.07A16.21,16.21,0,0,1,575.81,45a16.57,16.57,0,0,1,33.12-.67,16.39,16.39,0,0,0-32,5,16.72,16.72,0,0,0,.11,1.91ZM602.18,63.1a16.75,16.75,0,0,1-1.69,1C611,78.46,622.72,90.8,636.57,99.14,654.92,81.05,666,60.06,672,37c-.4-.11-.78-.24-1.16-.37A130.73,130.73,0,0,1,636.11,94.8C623.21,87.12,612.18,76,602.18,63.1Zm57.71-43.51a16.83,16.83,0,1,1,33.43-2.92,16.45,16.45,0,0,1-.24,2.84,16.65,16.65,0,0,0-33.18.09Zm22.22,17.09A130.68,130.68,0,0,0,716.83,94.8c13-7.72,24-18.85,34.06-31.87a16,16,0,0,0,1.68,1C742,78.38,730.29,90.77,716.39,99.14,698,81.05,687,60.06,681,37c.38-.11.77-.23,1.14-.36Zm62.26,7.71a16.39,16.39,0,0,1,32,4.93,16.75,16.75,0,0,1-.1,1.82A16.11,16.11,0,0,0,777.49,45a16.57,16.57,0,0,0-33.12-.6Zm17.51,21.2a240.16,240.16,0,0,0,18.67,45.5,272,272,0,0,0,45-28,14.53,14.53,0,0,0,1.62,1.81,273.4,273.4,0,0,1-47.76,30.5c-8-14.64-14.43-31.35-19.71-49.72h.3a17,17,0,0,0,1.88-.11Zm62.71,1.89a14.16,14.16,0,0,1,26,10.6,14,14,0,0,0,2.39-7.83,14.33,14.33,0,0,0-28.36-2.77Zm-9.16,64.33,7.74,3.7a77.57,77.57,0,0,1-3.41,10.61q1-3.06,1.79-6.27L813.67,136l1.75-4.23ZM199.63,814.32q-.62-.42-1.31-.81c-4.45-2.54-11.16-4.19-20.54-4.06-14.27.2-26.06,2.76-37.57,5.26-17.16,3.73-33.63,7.3-55.47,1.69L66.52,811.7l11.54,14.72a156,156,0,0,0,19.84,21.1,137.22,137.22,0,0,0,16.39,12.37q-5.18-3.8-9.94-8a155.25,155.25,0,0,1-19.62-21.1L73.32,816l18,4.69c21.59,5.61,37.88,2,54.85-1.69,11.37-2.49,23-5.06,37.15-5.26,9.27-.13,15.91,1.52,20.3,4.06.45.26.88.53,1.3.81-5.28-11.43-9.36-23.15-11.31-35.42-.52-3.29.57-4.59,2.42-3.32,12.24,10.73,21.43,1.74,27.9-22.45,4-14.86-2.17-26.89-16.68-37.84,10.82,9.8,15.07,20.58,11.57,33.51-6.54,24.19-15.83,33.18-28.21,22.45-1.87-1.28-3,0-2.44,3.32,2,12.26,6.09,24,11.43,35.41Zm-84.25,46.36c-14.09,13.54-23.33,16.41-44,25.26,5.94,7.57,11.86,12.64,18.07,16a66.66,66.66,0,0,1-11.32-11.66c20.48-8.86,29.61-11.73,43.58-25.32q-3.24-2.06-6.32-4.27Zm58.3,50.16,1.58,12.28.5,3.89,3.73,1.31,1.54.53-.18-1.4L179,913a14.85,14.85,0,0,0-5.33-2.14Zm223.79-2.79V925.8l.68,1.36a16,16,0,0,0,2.95,4l-.51-1V910.19a12.31,12.31,0,0,0-3.12-2.14Zm555.72,23.1a15.91,15.91,0,0,0,2.93-4l.68-1.36V908.05a12.33,12.33,0,0,0-3.11,2.14v19.95l-.5,1Zm220.06-2.29,1.53-.53,3.73-1.31.5-3.89,1.58-12.28a14.83,14.83,0,0,0-5.32,2.14l-1.84,14.48-.18,1.4Zm91.61-26.94c6.2-3.34,12.11-8.42,18-16-20.68-8.85-29.92-11.72-44-25.25q-3.08,2.21-6.32,4.27c14,13.59,23.11,16.46,43.59,25.32a66.54,66.54,0,0,1-11.31,11.64Zm-24.72-42.13a136.42,136.42,0,0,0,16.24-12.26,155.48,155.48,0,0,0,19.84-21.1l11.54-14.72-18.23,4.69c-21.83,5.61-38.31,2-55.47-1.69-11.5-2.5-23.29-5.06-37.57-5.26-9.33-.13-16,1.5-20.47,4a132.55,132.55,0,0,0,11-34.56c.53-3.29-.57-4.6-2.44-3.32-12.38,10.73-21.67,1.74-28.21-22.45-3.49-12.93.75-23.71,11.57-33.51-14.51,11-20.65,23-16.68,37.84,6.47,24.19,15.66,33.18,27.9,22.45,1.85-1.28,2.93,0,2.42,3.32a133.64,133.64,0,0,1-10.91,34.56c4.39-2.52,11-4.15,20.24-4,14.11.2,25.77,2.76,37.15,5.26,17,3.73,33.26,7.3,54.85,1.69l18-4.69-11.41,14.72a155,155,0,0,1-19.62,21.1q-4.7,4.17-9.8,7.93Zm-87.25-144.21q1.91-1.44,4-2.86c1.78-1.2,1.73-1.79.1-2.64a14,14,0,0,1-4.89-3.92,94.28,94.28,0,0,0,6.33-12.93c3.05-7.23,2-17.62,2.67-19.28a23.67,23.67,0,0,1,1.36-3.35l-.49.1c-3.2,1-4.72,3-6.25,7.58-.64,1.65.37,12-2.64,19.28a94.65,94.65,0,0,1-6.26,12.93,13.93,13.93,0,0,0,4.84,3.92c.79.42,1.21.78,1.22,1.17Zm109.16-78.43c10.88-6.46,25.33-18.38,28.08-34.8,8.38-50-66.72-51.75-73.25-84.91-2.29-11.62,2.88-24.94,13.44-33.83-14.53,8.37-22.11,24.45-19.44,38.16,6.45,33.16,80.72,34.87,72.43,84.91-2.2,13.26-11.93,23.58-21.26,30.47Zm32.38-117.27a61.33,61.33,0,0,0,12.69-14.4c.66-1.56-.81-2.44-2-1.95a48.25,48.25,0,0,0,6.62-4.09c1.3-.94,3.25,0,2.51,1.71-5.65,8.42-12,15-19.78,18.73Zm10.34-16.19-.12.08c-6.75,5-14,8.08-17.05,5.23-3.57-3.36-6-11.08-4.18-23.11,4.32-29.21-16.39-30.37-41.85-21.72a80.12,80.12,0,0,0-17.18,8.13,77.6,77.6,0,0,1,23.53-12.47c25.74-8.65,46.69-7.48,42.32,21.72-1.8,12,.61,19.75,4.23,23.11,2,1.88,5.93,1.16,10.31-1Zm-61.08,120.22c-17.34,13.36-46,22.12-85.11,18.37-4.67-23.37-31.52-29.26-33.35-57.6-1.93-29.91,27.66-56.08,34.1-88.67a19.48,19.48,0,0,0,2.92,5c-9.51,28.4-33.75,52.36-32,79.38,1.85,28.34,29,34.23,33.72,57.6,35.12,3.33,61.86-3.19,79.69-14Zm-73.77-125.39a7.84,7.84,0,0,0,3.66,1.11c3.24-15.31,25.28-29.91,22.92-60l-.4.72a96.82,96.82,0,0,0-8-10.23c10.3,35.71-11,52.72-18.22,68.45Zm29.54-66c5.93-18.86.49-47.26-30.27-69.92a33.15,33.15,0,0,1,10.61,1.89q-.71-1.76-1.48-3.49c32.27,25.62,33.72,57.55,23.61,74.94l-2.47-3.42Zm-22.36-74.15a34.61,34.61,0,0,1,8.35,1.78c-6.08-14.8-14.84-28.28-35.25-36a17.14,17.14,0,0,1,6.13-2.65c-5.38-11.23-13.65-17.19-25.68-16.29a38,38,0,0,0,.91-15.26c-30.33,15.13-37.95,5.76-60.44,6.48-12.43.4-23.16,3.84-27.35,10.62,5.3-3.93,13.66-6,23-6.28,22.25-.72,29.78,8.65,59.77-6.48a38.4,38.4,0,0,1-.9,15.26c11.89-.89,20.07,5.06,25.39,16.29a16.83,16.83,0,0,0-6.06,2.65c17.36,6.64,26.2,17.54,32.16,29.88Zm-139.27-40.47c-8.28.2-20.34,1.59-21.46,5.7-.11.41-.21.86-.29,1.35,5.72-2.4,16.85-2.91,22.29-2.7a16.85,16.85,0,0,1-.54-4.35ZM1012,334c-7.69,2.88-12.52,6-20.88,9.21a8.23,8.23,0,0,0-6.54,3.46,12.69,12.69,0,0,0-1.13,2.14,8.64,8.64,0,0,1,4.18-1.26c9.62-3.77,14.51-7.35,24.63-10.61A21.44,21.44,0,0,1,1012,334Zm11.81,114.78a54.37,54.37,0,0,1-29.19-2.59,46.45,46.45,0,0,0,2.37,6.24,53.89,53.89,0,0,0,31.39-1.65,17.2,17.2,0,0,1-4.57-2Zm-24.63,16.6a32.91,32.91,0,0,0,3.65,3.34c-6.44,1.71-12.88,1.07-19.33-.76-8-10-39-37-46.92-47-2.4-3.19-.19-7.89-2.65-13.26a28.32,28.32,0,0,0-9-11.14l-.8-.55-.53-187L428.42,209l.13,188.94a28.89,28.89,0,0,0-7.23,9.78c-2.47,5.38-.25,10.07-2.65,13.26-8,10-39,37-46.92,47-6.44,1.83-12.89,2.47-19.33.76a32.91,32.91,0,0,0,3.65-3.34,42.74,42.74,0,0,0,12.23-1.75c8-10,39.4-37,47.45-47,2.43-3.19.19-7.88,2.68-13.26a28.88,28.88,0,0,1,7.31-9.77l-.13-188.94,500.8.07.54,187,.81.55a28.36,28.36,0,0,1,9,11.14c2.5,5.38.26,10.08,2.68,13.26,8,10,39.4,37,47.45,47a42.73,42.73,0,0,0,12.23,1.75ZM358.27,452.44a46.45,46.45,0,0,0,2.37-6.24,54.37,54.37,0,0,1-29.19,2.59,17.2,17.2,0,0,1-4.57,2,53.89,53.89,0,0,0,31.39,1.65Zm13.54-103.62a12.69,12.69,0,0,0-1.13-2.14,8.23,8.23,0,0,0-6.54-3.46c-8.36-3.24-13.19-6.34-20.88-9.21a21.44,21.44,0,0,1-.26,2.94c10.12,3.27,15,6.84,24.63,10.61a8.64,8.64,0,0,1,4.18,1.26ZM339.18,325c-.08-.49-.18-.94-.29-1.35-1.11-4.1-13.17-5.5-21.45-5.7a16.86,16.86,0,0,1-.54,4.35c5.44-.21,16.57.3,22.29,2.7Zm-27.69-17.91c-4.19-6.77-14.92-10.22-27.35-10.62-22.5-.71-30.11,8.66-60.44-6.48a38,38,0,0,0,.91,15.26c-12-.89-20.3,5.06-25.68,16.29a17.14,17.14,0,0,1,6.13,2.65c-20.41,7.72-29.18,21.19-35.25,36a34.61,34.61,0,0,1,8.35-1.78c6-12.34,14.79-23.24,32.16-29.88a16.83,16.83,0,0,0-6.06-2.65c5.32-11.23,13.5-17.19,25.39-16.29a38.4,38.4,0,0,1-.9-15.26c30,15.13,37.53,5.76,59.77,6.48,9.32.3,17.67,2.35,23,6.28ZM176.94,361c-32.27,25.62-33.72,57.55-23.61,74.94l2.47-3.42c-5.93-18.86-.49-47.27,30.27-69.92a33.15,33.15,0,0,0-10.61,1.89c.48-1.17,1-2.34,1.48-3.49Zm-18.18,78.56.4.72a96.82,96.82,0,0,1,8-10.23c-10.3,35.71,11,52.72,18.22,68.45a7.85,7.85,0,0,1-3.66,1.11c-3.24-15.31-25.28-29.91-22.92-60ZM193,501c9.51,28.4,33.75,52.36,32,79.38-1.85,28.34-29,34.23-33.72,57.6-35.12,3.33-61.86-3.19-79.69-14,17.34,13.36,46,22.12,85.11,18.37,4.67-23.37,31.52-29.26,33.35-57.6,1.93-29.91-27.66-56.08-34.1-88.67a19.44,19.44,0,0,1-2.92,5ZM130.87,472.3a80.12,80.12,0,0,0-17.18-8.13c-25.45-8.65-46.17-7.48-41.85,21.72,1.78,12-.61,19.75-4.18,23.11-3,2.85-10.3-.28-17.05-5.23l-.12-.08c4.38,2.14,8.28,2.86,10.31,1,3.61-3.36,6-11.08,4.23-23.11-4.37-29.21,16.58-30.37,42.32-21.72a77.6,77.6,0,0,1,23.53,12.47ZM50.18,503.53a48.47,48.47,0,0,1-6.62-4.09c-1.3-.94-3.26,0-2.51,1.71,5.65,8.42,12,15,19.78,18.73a61.3,61.3,0,0,1-12.69-14.4c-.66-1.56.81-2.45,2-1.95Zm74.76-19.92c14.53,8.37,22.11,24.45,19.44,38.16-6.45,33.16-80.72,34.87-72.43,84.91,2.2,13.26,11.93,23.58,21.26,30.47-10.88-6.46-25.33-18.38-28.08-34.8-8.38-50,66.72-51.75,73.25-84.91,2.29-11.62-2.88-24.94-13.44-33.83Zm67.84,187a23.67,23.67,0,0,1,1.36,3.35c.65,1.65-.38,12,2.67,19.28a94.28,94.28,0,0,0,6.33,12.93,14,14,0,0,1-4.89,3.92c-1.63.85-1.69,1.44.1,2.64q2.11,1.42,4,2.86c0-.4.43-.75,1.22-1.17a13.93,13.93,0,0,0,4.84-3.92,94.51,94.51,0,0,1-6.26-12.93c-3-7.23-2-17.62-2.64-19.28-1.53-4.61-3-6.57-6.25-7.58l-.49-.1ZM1069.48,849q-3.41-1.07-6.83-2.36c-9.89-3.73-19.57-8.08-29.33-12.46-6.45-2.9-12.94-5.81-19.56-8.59,6-6.16,12.48-17.46,13.82-21.63a240.65,240.65,0,0,1,17.24-36.38c5.31-8.93,4.9-15.44-.77-18.95-2.19-2-3.23-3.83-3-5.51l-1.41.75c-3.75,2.52-3.45,5.57.38,9.1,5.61,3.51,6,10,.76,18.95a241.78,241.78,0,0,0-17.05,36.38c-1.33,4.17-7.74,15.47-13.67,21.63,6.55,2.78,13,5.69,19.34,8.59,9.65,4.38,19.22,8.73,29,12.46q3.72,1.42,7.43,2.57a21.67,21.67,0,0,1,3.69-4.54Zm32.09-9.31a12.27,12.27,0,0,1-5.58,1.92c-6.2.71-7.17-3.6-14.64-1.41a20.74,20.74,0,0,0-9.93,7.17,17.86,17.86,0,0,1,5.43-2.84c7.38-2.18,8.35,2.12,14.47,1.41a11.49,11.49,0,0,0,6.62-2.79q1.9-1.72,3.62-3.47ZM341.23,825.26c-6.86,2.86-13.57,5.88-20.26,8.88-9.77,4.38-19.44,8.73-29.34,12.46q-3.05,1.15-6.11,2.13a21.88,21.88,0,0,1,3.78,4.52q3.3-1.05,6.62-2.31c9.78-3.73,19.36-8.08,29-12.46,6.61-3,13.25-6,20-8.88-5.85-6.22-12.08-17.23-13.39-21.34a241.78,241.78,0,0,0-17.05-36.38c-5.25-8.93-4.85-15.44.76-18.95,3.83-3.53,4.12-6.58.38-9.1l-1.41-.75c.18,1.68-.86,3.52-3,5.51-5.67,3.51-6.07,10-.77,18.95a240.65,240.65,0,0,1,17.24,36.38C329,808,335.31,819,341.23,825.26Zm-57.39,22.07a20.75,20.75,0,0,0-9.93-7.17c-7.47-2.18-8.44,2.12-14.64,1.41a12.27,12.27,0,0,1-5.58-1.92q1.72,1.75,3.62,3.47a11.49,11.49,0,0,0,6.62,2.79c6.13.71,7.09-3.6,14.47-1.41a17.76,17.76,0,0,1,5.43,2.84Zm195.45-21.05c-1.73-6-8-10.48-18.1-13.38-9.65-2.78-23.47-4.42-40.4-4.79q-5.45-.12-10.66.11c-5.61-6-15.57-10.53-25.75-5.75-3.73-3.18-10.22-3.63-15.32-.76a132.34,132.34,0,0,1-12.14-11.48c4.22,5.66,10.13,11.13,15.58,15.82,5-2.87,11.47-2.42,15.16.76,10.06-4.78,19.91-.23,25.46,5.75q5.16-.23,10.55-.11c16.74.37,30.41,2,40,4.79,7.4,2.15,12.73,5.18,15.69,9ZM382.35,678.6a24.52,24.52,0,0,0-1-4.62c-.37-1-1.09-1.17-1.88-.21-3.41,4.15-8.4,5.8-12.68,4-15.34-6.57-27.93-17.88-46-19.71a25.69,25.69,0,0,1-9.7-2.58c1.4,3.63,5.84,6.12,13.68,6.92,17.85,1.82,30.3,13.13,45.47,19.71,4.05,1.76,8.76.32,12.12-3.46Zm43.52-125.75.07,89.06a87,87,0,0,0,14.34,48.47,88,88,0,0,1-11.54-44.14l-.07-93.76c-.9.08-1.84.2-2.8.36ZM913.45,690.2a87,87,0,0,0,14.23-48.29l-.26-89.35a26.44,26.44,0,0,0-2.79-.17l.27,93.85a88,88,0,0,1-11.45,44Zm130.72-34.76a25.69,25.69,0,0,1-9.7,2.58c-18,1.82-30.64,13.13-46,19.71-4.28,1.84-9.27.19-12.68-4-.79-1-1.52-.79-1.88.21a24.42,24.42,0,0,0-1,4.62c3.36,3.78,8.06,5.22,12.12,3.46,15.17-6.57,27.63-17.88,45.47-19.71,7.84-.8,12.27-3.29,13.68-6.92ZM998.35,790.21a132.34,132.34,0,0,1-12.14,11.48c-5.11-2.87-11.6-2.42-15.32.76-10.2-4.78-20.18-.21-25.78,5.8-3.78-.18-7.65-.24-11.6-.15-16.93.37-30.75,2-40.4,4.79C883,815.8,876.71,820.28,875,826.3c3-3.88,8.3-6.91,15.71-9.07,9.54-2.78,23.21-4.42,39.95-4.79,3.92-.09,7.74,0,11.48.16,5.54-6,15.41-10.58,25.49-5.8,3.69-3.18,10.11-3.63,15.16-.76,5.45-4.69,11.36-10.16,15.58-15.82ZM872.12,866.57c-69.57,17.51-315.22,20.26-389.93-1.49v3.69c72,22.69,323.54,19.75,389.93,1.57v-3.77Zm55-401.32-2.8-2.95.16,54.37C939,523.55,954,528,970.25,525.18a37.91,37.91,0,0,0-2.08-3.66c-14.39,1.14-27.8-3.06-40.86-9.17l-.14-47.09ZM425.84,513.32c-12.39,5.59-25.13,9.28-38.75,8.2a37.37,37.37,0,0,0-2.08,3.66c15.48,2.68,29.78-1.22,43.63-7.53l0-52.95-2.8,3,0,45.63ZM212.35,838.09l-.59-5.91c3,5.58,6.24,11.11,9.55,16.63a24.91,24.91,0,0,0-2.86,8.32q-2.13-.31-4.26-.65l-.55-5.51a24.27,24.27,0,0,1,2.53-6.5q-1.93-3.18-3.82-6.38Zm928.54,10.39-.8,8-3.31.52a24.92,24.92,0,0,0-2.84-8.19c2.88-4.8,5.69-9.61,8.36-14.45l-.57,5.71-2.65,4.41a23,23,0,0,1,1.81,4ZM859.33,943.56c-118.6,18.9-246.49,18.9-365.09,0-41.65-6.64-75-12.25-81.62-21.31,0-19.3.17-38,.56-57.33a59,59,0,0,0,13.25,5.19c33.7,9,73.61,15.56,114.14,19.85,86.83,9.18,185.59,9.18,272.42,0,40.54-4.29,80.44-10.82,114.14-19.85a59,59,0,0,0,13.26-5.19c.39,19.37.55,38,.55,57.33-6.6,9.06-40,14.67-81.62,21.31ZM401.16,850.47v37.42c-16.31-5.88-39,5.17-62.35,16.5-14.32,7-28.88,14-41.3,16.74a186.78,186.78,0,0,1-53.26,3.61,207.47,207.47,0,0,1-50.58-10.21l-1.48-11.7h0l-4.8-40c16.61,3.67,34.16,7,52.38,7.77a172.47,172.47,0,0,0,21.82-.39c5.36,1,11.69.18,16.5-.84,10.13,1.5,16.36-.86,17.89-6.28q2.22-.76,4.44-1.61c10-3.83,19.83-8.28,29.7-12.76,14.12-6.41,28.41-12.9,43.8-17.67a83.14,83.14,0,0,0,12.54-2.16c5.81,1.17,15.12,1.7,17.7-.28,6.81,0,14.16.95,15.93-4.87,1.08,0,2.17,0,3.26,0,15.62.35,28.16,1.82,36.67,4.29,5.91,1.72,9.19,3.32,9.22,4.66,0,0-2.32.39-6.66,1a154.58,154.58,0,0,1-33.47.63c-11.13-.92-19,1.15-23.42,4.7-3.24,2.6-4,6.81-4.59,11.42Zm-68.93,27A230.53,230.53,0,0,1,282.72,891c18.44,5.11,46.34-2.56,49.51-13.55Zm16.87-15.77A329.26,329.26,0,0,1,278.29,881c25.65,4,65.39-7.62,70.81-19.39Zm-175.72-9v0L178,891.24c-8.81-2.15-19.82-1.33-31.6-.44-14.31,1.08-30,2.26-42-2.21,12.73-5.49,24.7-11.82,32.18-23.17l3.76-5.71-6-3.33A122,122,0,0,1,112.77,841q-3.39-3-6.56-6.24c15.87,1.26,29.08-1.64,42.68-4.63,10.86-2.38,22-4.83,34.61-5,6.76-.09,11.19.87,13.78,2.37a4.07,4.07,0,0,1,1.5,1.26l.06.58h0a4.41,4.41,0,0,1-1.57,2c-1.49,1.19-4.7,2.41-7.92,3.64-9.24,3.52-18.58,7.08-16,17.63Zm779.43-2.14c-.54-4.61-1.35-8.81-4.59-11.42-4.42-3.55-12.28-5.62-23.42-4.7a154.56,154.56,0,0,1-33.46-.63c-4.34-.6-6.66-.94-6.66-1,0-1.34,3.32-2.94,9.22-4.66,8.5-2.47,21-3.94,36.67-4.29l2.41,0c1.77,5.82,13.52,6,19.34,4.51-.66,3.26,10.82,6.35,18.66,2.45.15,1.5,5.93,2.6,11.53,1,15.24,4.75,27.29,10.62,41.3,17,9.88,4.49,19.67,8.93,29.7,12.76,1.17.45,5.89,2.15,7.06,2.56.52,5.66,14.32,8.14,22.24,5.47,2.53,1,8.36,2,15.21.93,7.54.66,8.76.47,16.15.16,18.22-.78,35.77-4.1,52.38-7.77l-4.8,40h0l-1.49,11.7a207.42,207.42,0,0,1-50.58,10.21,186.78,186.78,0,0,1-53.26-3.61c-12.42-2.69-27-9.77-41.3-16.74-23.3-11.33-46-22.38-62.35-16.5V850.47Zm75.7,27c3.17,11,31.07,18.67,49.51,13.55a230.51,230.51,0,0,1-49.51-13.55Zm-16.87-15.77c5.41,11.76,45.16,23.43,70.8,19.39a329.17,329.17,0,0,1-70.8-19.39Zm170.41-9c2.6-10.55-6.74-14.1-16-17.63-3.22-1.23-6.42-2.45-7.92-3.64a4.45,4.45,0,0,1-1.57-2h0l.06-.58a4.14,4.14,0,0,1,1.5-1.26c2.59-1.49,7-2.46,13.78-2.37,12.61.18,23.75,2.62,34.61,5,13.61,3,26.81,5.88,42.68,4.63Q1246,838,1242.66,841A121.94,121.94,0,0,1,1221,856.39l-6,3.33,3.76,5.71c7.47,11.35,19.44,17.68,32.17,23.17-12,4.47-27.65,3.29-42,2.21-11.78-.89-22.79-1.71-31.6.44l4.63-38.62v0ZM411.49,821.3c-.4,1.52-5.43,2.77-8.84.54-.24-.15-7.79-10.55-2.39-10.57,6.1,0,11.64,8.44,11.22,10Zm-51.7,6.29c-5.52.31-9-1.36-7.3-5.11,2.79-6.24,6.87-8.28,10.61-8.24,12.51.12,19.13,14.08,9.95,13.45l-13.26-.09Zm34.09-3.06c-.43,1.92-5.84,3.51-9.51.69-.25-.2-8.39-13.35-2.57-13.37,6.57,0,12.52,10.68,12.08,12.69Zm-25.27-76.39c-6,5.1-21.71,17.47-28.53,21.18-1.4.76-1.6,2.56-.76,4.36,6.45,14.82,15.15,26.29,27.66,32,2.08,1,1,4.23,0,3.79-5.05-1-9.78-1.31-12.89,2.46-1.55,1.89-3.27,1.56-4.93,1.13-5.43-1.4-8.5-4.13-10.61-8.34-3.57-10.08-10.36-21.19-16.1-30.51-1-1.42.5-2.37,1.89-2.27,1.41.63,2.69,1.16,4.36,1.8,3.6,1.38,4.13-.68,3-2-7-3.85-8.12-6.63-5.5-8.72,5.25-4,8-5.2,8.6-9.57.22-1.62.94-2.47,1.83-2.36,20.61,2.38,30.08-7.51,31.73-7.36,2.22.09,2.27,2.59.19,4.36ZM237.38,854.71a12.12,12.12,0,0,1,4.55,7,3.59,3.59,0,0,1-2.18,4.36c-2.92,1.12-6.48.93-10.51.1-1.44-.3-2.44-1.61-2.28-4a11.53,11.53,0,0,1,2.84-6.63c2.05-2.43,4.78-3,7.58-.85Zm18.91,10.23c14.63,4.8,15.13-16.31.06-16.57-5.46.1-8.67,5.72-6.82,11.84,1,3.38,4,3.84,6.76,4.73Zm20.9,0c-3.08-2.62-9.82-9-7-13.36,2-3.14,6.74-2.91,9.1-1.33,4.76,3.19,7.34,7.74,7,13.08-.17,2.77-5.7,3.93-9.09,1.61Zm-48.38-82c-6.21,12.7,6.85,53.29,16.86,61.48,1.11,1.33,2,3.28.57,4-8.91,4.39-21.81-2.37-25.67-14.31-2.43-7.51-.19-16.42-1.88-24.11-1-4.31-6.26-7.33-6.74-11.71-.22-2,.21-3.31,1.8-3.6,5.7-1,6.25-10.83,11.93-13.26,1.14-1.49,3.69-.89,3.13,1.52Zm7.39-16c-2.73,9.66-.68,18.44,7.58,22.26,1.53,0,12.2-6.53,7.39-8.34-6.87-3.07-11.13-8.32-15-13.93Zm53.41-50c-6-15.75-19-35.55-10.11-52.43,1.24,11.83,7.06,21.64,10.61,32,1.8,5.21,3.33,10.6-.5,20.47Zm-.07-153.42c-.52-6.83,3.17-8.07,8.72-6.82a68.26,68.26,0,0,1,29.56,15.54c8.23,7.72,5.43,15.11-.38,13.64s-24-7.88-23.69-15.35c-3.21,3.61-3.15,8.22,4.82,13.77,7.09,4.95,14,8.51,18.11,12.57,5.66,5.55,5.84,8.69,5.12,12.13-1.53,7.27-7.58,7.7-12.7,6.82a31.19,31.19,0,0,1-16.1-8.15c-3.13-2.84-5-5.79-4.55-9.85-5.3,3.32-3.26,10.24,1.85,14.29s9.86,7.68,14.63,11.66c2.14,3,2,7.43-.33,10.88-2.53,3.69-4.42,3.86-9.71,4.24-3.28.24-6.13.82-9.11,1-2.45.19-2.53,1.87-.5,2.79,4.22,1.9,5.43,5.31,6,9.09,1,6.25-3.24,16.79-2.69,24.5,2.66,37.27,1.41,53.53-17.4,92.22-4.79,9.85-17.14,9.56-29.18,1.14C237.27,759.33,232.5,743,238,723c3.08-11.22-.73-19.41-7.2-26.53-15.24-16.76-24.18-33.11-17.43-50.4,5.28-13.53,13.47-13.36,22-10.61,9.51,8.6,11.7,22.41,10.8,36.19,9.24-19.85,7.56-34.8-8.71-49.26-2.61-7,7.69-15,12.66-8.71,4.08,5.17,11.36,9.47,17.08,9.27-7.41-8-14.59-20.4-12.13-26.53,5.75-14.28,8-29.4-.76-47-4.74-7.77,1.58-10.2,12.51-6.82,11.15,3.45,19,10.72,22.73,20.84Zm-205.84-51c22.85-2.09,8.79-24.87,18.51-33.91,4-3.68,1.78-7.2-2.47-9.13s-12.48-2.32-18.06.27c3.86,1.09,3.54,4,2.41,5-10.45,9.5-3.5,28.41-9.2,35.17,8.24-.33,8.41-13.36,10-22.55,1.22-7.12,4.55-9.08,10.55-8.33-13.34,7-1.25,22.34-11.74,33.51ZM104,629.39c28,19.5,68.85,27.08,91.6,24.69-.69,5.45-.71,4.28.12,9.22-76.19-8.57-118.91-34-119.39-58.92-.23-12,4.24-30.41,20.45-36.19-15.59,15-23.65,39.68,7.22,61.2ZM278,518.32c-20.88-10.56-32.81-29.14-36.76-54.85A57.38,57.38,0,0,0,256.66,480c6.3,4.59,8.52,9.17,9.66,14.4,1.91,8.76,6.07,16.55,11.65,23.87ZM339.7,529.5c4.87-1,8.74-4.68,10.89-8.81a74.42,74.42,0,0,0,9.95,15.63,63.47,63.47,0,0,0,3.79-9.47c12.51,2.1,29.5,3.61,43.65,1.71,17.61-2.37,31.44-8.16,34-2.85,3-12.54,21.52-18.19,23.4-8.72,2.42,12.15-13,15.3-21.51,17.05-2.46.95-2.27,2.27-1.13,3.41,5.9-.26,15.73-1.1,18.19,1.9,7.11,9.54-19.86,18.82-25.77,3.41-.62-1.48-1.53-4.94-3.34-5.4-6.15-1.56-60.66,6-75.48,5a10.92,10.92,0,0,0-1.14-3.79,24.73,24.73,0,0,0-5.31,4.55c-9-1.87-22.13-10.79-30.31-11.75,12.19,7,21.92,16.07,34.86,21.7a8.8,8.8,0,0,0,.38-4.55c28.45,6,71.78-6.06,73.14-1.23-13.7,1-13.67,9.19-37.51,5-.68,2.3.29,3.16,2.65,5.21-9.62,3-17.21,2.14-27.85-4.17-.46,3.2,1.38,7.06,4.74,10.23-14.56,6.44-26-2.1-37.48-15.91-1.47-1.77-2.91-1.34-1.73.79,3.42,6.2,6.09,11.41,11.55,16.25-23.14-8.69-44.31-21-64.42-35.24L297.26,528c-18.68-15-27-30.58-26.53-46.61,38.38,11.31,63.33,26.34,69,48.13Zm13.46-54.94a49.71,49.71,0,0,1,11.09,14.87,39.5,39.5,0,0,0,15.34-17.62c-7.95,2.86-16.46,4.44-26.43,2.75Zm-13-4.83c-13,0-20.81-2.6-30.27-7.62C320.3,473,337.5,482,344.19,491.52c9.82,13.94,9.38,23.25,16.64,35.05,1.58-17.72,6.34-35-20.65-56.84Zm2.08,31.45c6.3,9.15,3.77,16.84.38,20.46-.08-7.8-6.49-15.88-23.49-26.15-25.81-15.58-53.69-14.43-69-36.59-11.22-16.25-5.84-40.1,13.29-68-10.24,17.14-11.47,42.64,0,57.22,18.73,23.81,64,31.51,78.82,53.05ZM217.21,511.61c-28.3-33.11-31.53-107.49,20.84-147.79l19.14.19c-40.84,33-47.64,65.32-40,147.6Zm22.36-2.28c-29.26-47-24.42-112.27,21.6-136.8a45.52,45.52,0,0,0,11,6.82c-39.16,22.4-45.16,68.51-32.59,130ZM356.28,459c-49.86,6.92-72.48-35-35.05-60.63-6-1.1-11.72-4-17.25-9.1-32.14,34.86-3.91,88.69,52.3,69.73Zm-64-79.29c-17.35,33.57-16.38,61.6,18.95,92.84-52.2-18.41-54.47-63.89-26.46-92.91A48.67,48.67,0,0,1,264.84,356c2.65-.44,4.13-1.31,6.78-1.75,1.2,5.44,6.88,18.38,20.62,25.5Zm-101.46,103c-47-27.09,10.19-163.77,66.31-125.43-47-9.32-74.84,56.62-66.31,125.43Zm25.77-134.15C203,355.38,167.27,396.85,163.49,424c-9.11-30.08,26.67-62.56,53.05-75.41ZM198,344.64c12.4-19,30.13-26,57.69-7.1-.32,2.34-.63,6.09,0,8.62-19.71-7.49-38-7.66-57.69-1.52Zm59.11-11.75c-9.89-7.27-17.25-10.81-39-12.89,7.38-8.76,27.64-5.36,52.1,8.15-7.8-1.38-12.35,0-13.07,4.74Zm24.44-.19c-9.09-18.19-34.29-14-42.06-25,15.66,7.9,35.11-2.21,51,20.27a38.29,38.29,0,0,0-8.91,4.74ZM309,326a27.65,27.65,0,0,0-12.22,1.61c.89-7.83-5.95-14.84-18.19-19.14,20.59.74,30.54,6.68,30.41,17.53Zm13.18,54.23c-5.55-1.47-5.87-12.59-5.88-12.89.13-.82,3.63-2.69,4.38-2a55.74,55.74,0,0,0,1.51,14.87Zm15.15,10.66c-6.62-3.73-8.54-10.63-6.06-15.54-10.83,2-4.66,18.1,6.06,15.54Zm-2.94-39.27a22.47,22.47,0,0,0,0-5.4,3.55,3.55,0,0,0-2.84-3,79.55,79.55,0,0,0-14.21-2.27c-1.33.82-.85,3,0,3a17.4,17.4,0,0,1,12.32,7.39c.67.9,4.59,1.4,4.78.28Zm27.25,8.79c-.32-6.11-2.34-10.59-5.11-10.8-8.22-3.28-13.2-5.35-22-13.24,1.23-4.17-3.32-6.53-12.69-6.25-15.53.46-31.06,1.65-44.53,8.15a65.87,65.87,0,0,0-12.51-5.3c-5.09-.13-7.23,9.47-4.36,16.1a97,97,0,0,0,11.46,1.89,17,17,0,0,1,.43-6,29.09,29.09,0,0,0-8.53-5.5,25.21,25.21,0,0,1,12.32,2.75c-2.53,14.65,10.31,27.7,23.16,32.26a118.83,118.83,0,0,0-2.46,13.08,49.76,49.76,0,0,1,14.59-8c-1.38,8.48,6.49,13.62,23.3,15.54,8.29.85,10.53,2.37,16.3,4.74a15.11,15.11,0,0,0,10.42-2.65,11.11,11.11,0,0,0,.76-5.68c-.36-3.21-7.7-1.1-16.67,2.27-2.61-.35-6.73-1.86-8-3.22,13.14-5.22,20.93-7,33-7.39,0-3.15-.85-11.54-2.28-15.74-.7-2.07-6-2-6.61-7ZM943.77,821.3c-.42-1.58,5.12-10,11.22-10,5.41,0-2.15,10.41-2.39,10.57-3.41,2.23-8.44,1-8.84-.54Zm51.7,6.29-13.26.09c-9.18.63-2.56-13.33,9.95-13.45,3.74,0,7.82,2,10.61,8.24,1.68,3.76-1.78,5.43-7.3,5.11Zm-34.09-3.06c-.45-2,5.51-12.71,12.08-12.69,5.82,0-2.31,13.18-2.57,13.37-3.67,2.82-9.08,1.23-9.51-.69Zm25.27-76.39c-2.08-1.76-2-4.27.19-4.36,1.65-.15,11.12,9.74,31.73,7.36.89-.1,1.62.74,1.83,2.36.58,4.37,3.36,5.56,8.6,9.57,2.62,2.08,1.48,4.86-5.5,8.72-1.1,1.31-.57,3.36,3,2,1.66-.63,2.95-1.17,4.36-1.8,1.39-.1,2.87.85,1.89,2.27-5.75,9.32-12.54,20.43-16.1,30.51-2.11,4.2-5.18,6.94-10.61,8.34-1.66.43-3.37.75-4.93-1.13-3.11-3.77-7.83-3.44-12.89-2.46-1,.44-2.08-2.81,0-3.79,12.52-5.73,21.21-17.2,27.66-32,.85-1.8.64-3.6-.76-4.36-6.81-3.72-22.52-16.08-28.53-21.18Zm131.23,106.57c2.8-2.14,5.53-1.58,7.58.85a11.52,11.52,0,0,1,2.84,6.63c.16,2.37-.84,3.68-2.28,4-4,.84-7.6,1-10.51-.1a3.59,3.59,0,0,1-2.18-4.36,12.12,12.12,0,0,1,4.55-7ZM1099,864.93c2.72-.89,5.74-1.35,6.76-4.73,1.85-6.12-1.36-11.75-6.82-11.84-15.08.26-14.57,21.37.06,16.57Zm-20.9,0c-3.4,2.32-8.92,1.16-9.09-1.61-.33-5.33,2.25-9.88,7-13.08,2.36-1.58,7-1.81,9.1,1.33,2.81,4.31-3.94,10.74-7,13.36Zm48.38-82c-.57-2.4,2-3,3.13-1.52,5.68,2.43,6.24,12.24,11.93,13.26,1.59.28,2,1.64,1.8,3.6-.48,4.38-5.79,7.39-6.74,11.71-1.7,7.68.55,16.6-1.88,24.11-3.87,11.94-16.77,18.69-25.67,14.31-1.41-.7-.55-2.65.57-4,10-8.19,23.08-48.79,16.86-61.48Zm-7.39-16c-3.84,5.61-8.1,10.86-15,13.93-4.81,1.8,5.86,8.38,7.39,8.34,8.26-3.82,10.31-12.6,7.58-22.26Zm-53.41-50c6-15.75,19-35.55,10.11-52.43-1.24,11.83-7.06,21.64-10.61,32-1.8,5.21-3.33,10.6.51,20.47Zm.07-153.42c3.69-10.12,11.58-17.39,22.73-20.84,10.93-3.38,17.25-.95,12.51,6.82-8.72,17.59-6.51,32.71-.76,47,2.47,6.12-4.72,18.48-12.13,26.53,5.72.2,13-4.11,17.08-9.27,5-6.3,15.28,1.74,12.66,8.71-16.28,14.46-18,29.41-8.71,49.26-.9-13.77,1.29-27.58,10.8-36.19,8.5-2.75,16.7-2.92,22,10.61,6.75,17.29-2.19,33.64-17.43,50.4-6.48,7.12-10.28,15.31-7.2,26.53,5.49,20,.73,36.29-14,46.61-12,8.42-24.39,8.71-29.18-1.14-18.8-38.68-20.06-54.95-17.4-92.22.55-7.71-3.64-18.25-2.69-24.5.58-3.78,1.78-7.19,6-9.09,2-.91,1.95-2.6-.5-2.79-3-.22-5.83-.81-9.11-1-5.29-.38-7.18-.55-9.71-4.24-2.36-3.45-2.47-7.92-.33-10.88,4.78-4,9.61-7.68,14.64-11.66s7.15-11,1.85-14.29c.45,4.06-1.42,7-4.55,9.85a31.19,31.19,0,0,1-16.1,8.15c-5.12.88-11.17.45-12.7-6.82-.72-3.43-.54-6.58,5.12-12.13,4.14-4.06,11-7.62,18.11-12.57,8-5.55,8-10.16,4.82-13.77.32,7.47-17.9,13.89-23.69,15.35s-8.6-5.92-.38-13.64A68.26,68.26,0,0,1,1057,556.68c5.55-1.25,9.23,0,8.72,6.82Zm205.84-51c-22.85-2.09-8.79-24.87-18.51-33.91-4-3.68-1.78-7.2,2.47-9.13s12.48-2.32,18.06.27c-3.86,1.09-3.54,4-2.41,5,10.45,9.5,3.5,28.41,9.2,35.17-8.24-.33-8.41-13.36-10-22.55-1.22-7.12-4.55-9.08-10.55-8.33,13.34,7,1.25,22.34,11.74,33.51Zm-20.32,116.89c30.87-21.52,22.81-46.2,7.22-61.2,16.21,5.78,20.68,24.22,20.45,36.19-.48,24.9-43.2,50.35-119.39,58.92.83-4.94.81-3.77.12-9.22,22.75,2.39,63.63-5.2,91.6-24.69Zm-174-111.07c20.88-10.56,32.81-29.14,36.76-54.85A57.38,57.38,0,0,1,1098.6,480c-6.3,4.59-8.52,9.17-9.66,14.4-1.91,8.76-6.07,16.55-11.65,23.87Zm-61.72,11.18c5.64-21.79,30.59-36.82,69-48.13.52,16-7.84,31.59-26.53,46.61l19.32,1.52c-20.11,14.24-41.28,26.56-64.42,35.24,5.45-4.85,8.12-10.05,11.55-16.25,1.18-2.14-.25-2.57-1.73-.79-11.49,13.82-22.92,22.35-37.48,15.91,3.36-3.17,5.2-7,4.74-10.23-10.64,6.3-18.23,7.21-27.85,4.17,2.35-2,3.33-2.91,2.65-5.21-23.84,4.17-23.81-4-37.51-5,1.36-4.83,44.68,7.2,73.14,1.23a8.79,8.79,0,0,0,.38,4.55c12.95-5.62,22.67-14.75,34.86-21.7-8.18,1-21.36,9.88-30.31,11.75a24.76,24.76,0,0,0-5.31-4.55,10.92,10.92,0,0,0-1.14,3.79c-14.82,1-69.33-6.59-75.48-5-1.81.46-2.72,3.92-3.34,5.4-5.91,15.41-32.88,6.13-25.77-3.41,2.46-3,12.29-2.15,18.19-1.9,1.14-1.13,1.33-2.46-1.13-3.41-8.51-1.75-23.92-4.9-21.51-17.05,1.89-9.47,20.44-3.83,23.4,8.72,2.6-5.31,16.43.48,34,2.85,14.14,1.9,31.14.39,43.65-1.71a63.47,63.47,0,0,0,3.79,9.47,74.37,74.37,0,0,0,9.95-15.63c2.15,4.13,6,7.77,10.89,8.81Zm-13.46-54.94c-10,1.69-18.48.11-26.43-2.75A39.5,39.5,0,0,0,991,489.43a49.71,49.71,0,0,1,11.09-14.87Zm13-4.83c-27,21.87-22.24,39.12-20.65,56.84,7.26-11.8,6.82-21.11,16.64-35.05,6.69-9.49,23.89-18.56,34.29-29.41-9.47,5-17.27,7.66-30.28,7.62ZM1013,501.18c14.83-21.55,60.09-29.25,78.82-53.05,11.47-14.58,10.24-40.08,0-57.22,19.13,27.89,24.51,51.75,13.29,68-15.3,22.16-43.19,21-69,36.59-17,10.26-23.41,18.34-23.49,26.15-3.39-3.62-5.92-11.32.38-20.46Zm125.05,10.43c28.3-33.11,31.53-107.49-20.84-147.79l-19.14.19c40.84,33,47.64,65.32,40,147.6Zm-22.36-2.28c29.26-47,24.42-112.27-21.6-136.8a45.52,45.52,0,0,1-11,6.82c39.16,22.4,45.16,68.51,32.59,130ZM999,459c49.86,6.92,72.48-35,35.05-60.63,6-1.1,11.72-4,17.24-9.1C1083.41,424.16,1055.18,478,999,459Zm64-79.29c13.74-7.13,19.42-20.06,20.62-25.5,2.65.44,4.13,1.31,6.79,1.75a48.67,48.67,0,0,1-19.9,23.69c28,29,25.74,74.5-26.46,92.91,35.33-31.24,36.3-59.27,18.95-92.84Zm101.46,103c8.53-68.81-19.35-134.75-66.31-125.43,56.12-38.34,113.27,98.34,66.31,125.43Zm-25.77-134.15c13.52,6.81,49.28,48.28,53.05,75.41,9.11-30.08-26.67-62.56-53.05-75.41Zm18.52-3.93c-19.7-6.15-38-6-57.69,1.52.63-2.53.32-6.28,0-8.62,27.56-18.87,45.29-11.93,57.69,7.1Zm-59.11-11.75c-.73-4.69-5.27-6.11-13.07-4.74,24.46-13.51,44.72-16.91,52.1-8.15-21.78,2.08-29.14,5.61-39,12.89Zm-24.44-.19a38.29,38.29,0,0,0-8.91-4.74c15.85-22.48,35.31-12.38,51-20.27-7.77,11-33,6.82-42.06,25ZM1046.3,326c-.13-10.85,9.82-16.78,30.41-17.53-12.24,4.29-19.08,11.31-18.19,19.14A27.65,27.65,0,0,0,1046.3,326Zm-13.18,54.23c5.55-1.47,5.87-12.59,5.88-12.89-.13-.82-3.63-2.69-4.38-2a55.79,55.79,0,0,1-1.51,14.87ZM1018,390.87c10.72,2.56,16.9-13.54,6.06-15.54,2.47,4.9.56,11.8-6.06,15.54Zm2.94-39.27a22.47,22.47,0,0,1,0-5.4,3.55,3.55,0,0,1,2.84-3A79.55,79.55,0,0,1,1038,340.9c1.33.82.85,3,0,3a17.4,17.4,0,0,0-12.32,7.39c-.67.9-4.59,1.4-4.78.28Zm-27.25,8.79c.32-6.11,2.34-10.59,5.11-10.8,8.22-3.28,13.2-5.35,22-13.24-1.23-4.17,3.32-6.53,12.69-6.25,15.53.46,31.06,1.65,44.53,8.15a65.87,65.87,0,0,1,12.51-5.3c5.09-.13,7.23,9.47,4.36,16.1a97,97,0,0,1-11.46,1.89,17,17,0,0,0-.43-6,29.09,29.09,0,0,1,8.53-5.5,25.21,25.21,0,0,0-12.32,2.75c2.53,14.65-10.31,27.7-23.16,32.26a119.12,119.12,0,0,1,2.46,13.08,49.76,49.76,0,0,0-14.59-8c1.38,8.48-6.49,13.62-23.3,15.54-8.29.85-10.53,2.37-16.3,4.74a15.11,15.11,0,0,1-10.42-2.65,11.11,11.11,0,0,1-.76-5.68c.36-3.21,7.7-1.1,16.67,2.27,2.61-.35,6.73-1.86,8-3.22-13.14-5.22-20.93-7-33-7.39,0-3.15.85-11.54,2.28-15.74.7-2.07,6-2,6.61-7ZM446.48,226.78c0,62.65,0,118.1.1,172.12h0v25.25l.07,71.93c2.63-.42,5.3-.69,8.05-1.12,10.38-1.62,17.18,1.55,14.41,14.7,4.66,8.78,3.28,16.35-3.79,23.12,6.32,6.32,5,14.54-.64,20.39a5.23,5.23,0,1,1-8.18,5.42,26,26,0,0,1-3.31,1.09,21.56,21.56,0,0,1-6.5.71l0,77.78c0,13.31,3.05,25.52,10,36.89,18.86,31.34,63.52,50.49,96.26,63.25,27.19,10.82,55.48,20.25,81.83,32.73,13,6.1,26.91,13.59,38.28,23.3V758.27a230.31,230.31,0,0,0-25.8-13.87c-27.19-12.76-55.76-22.19-83.77-33.29-24.69-9.71-67.13-27.46-81.56-51a40.62,40.62,0,0,1-5.83-21.91l-.28-382.25-29.41-29.13ZM680.63,794.25c11.44-9.71,25.22-17.16,38.16-23.23,26.45-12.41,54.71-21.76,81.91-32.51,32.54-12.86,77.47-32.12,96.29-63.34a69.19,69.19,0,0,0,9.86-36.84l-.22-78a22.71,22.71,0,0,1-4.58-.71,25.9,25.9,0,0,1-5.82-2.27,5.23,5.23,0,1,1-6.47-5.12c-5-5.77-5.85-13.5.16-19.52-7.07-6.76-8.45-14.33-3.79-23.12-2.77-13.14,4-16.32,14.41-14.7,2,.31,4,.54,5.91.8l-.77-268.61-29.25,29.1,1.09,382.18A40,40,0,0,1,871.85,660c-14.34,23.8-57.08,41.38-81.94,51.2-27.92,11-56.37,20.46-83.59,33.23a252.31,252.31,0,0,0-25.69,13.72v36.07ZM458.37,501a31.84,31.84,0,0,0-13.21,1.23c-3.27,1.1-4.49,4.59-3.38,8.09.44,1.43,3,2.86,5.63,1.53,4.46-2.66,10-3.76,16.38-3.69.44-2.39-.38-6.72-5.42-7.16ZM891,259.95a5.23,5.23,0,1,0,5.23,5.23,5.23,5.23,0,0,0-5.23-5.23Zm0,48.7a5.22,5.22,0,1,0,5.23,5.22,5.22,5.22,0,0,0-5.23-5.22Zm0,48.7a5.22,5.22,0,1,0,5.23,5.23,5.22,5.22,0,0,0-5.23-5.23Zm0,48.7a5.23,5.23,0,1,0,5.23,5.23A5.22,5.22,0,0,0,891,406Zm0,194.79a5.23,5.23,0,1,1-5.23,5.23,5.22,5.22,0,0,1,5.23-5.23Zm0,48.7a5.22,5.22,0,1,1-5.23,5.22,5.22,5.22,0,0,1,5.23-5.22Zm-30.35,36.82a5.22,5.22,0,1,1-5.22,5.22,5.22,5.22,0,0,1,5.22-5.22Zm-42.29,22.89a5.22,5.22,0,1,1-5.22,5.23,5.23,5.23,0,0,1,5.22-5.23Zm-46.77,19.9a5.22,5.22,0,1,1-5.23,5.23,5.22,5.22,0,0,1,5.23-5.23Zm-52.24,20.4a5.23,5.23,0,1,1-5.23,5.23,5.23,5.23,0,0,1,5.23-5.23ZM461.61,259.95a5.23,5.23,0,1,0,5.22,5.23,5.23,5.23,0,0,0-5.22-5.23Zm0,48.7a5.22,5.22,0,1,0,5.22,5.22,5.22,5.22,0,0,0-5.22-5.22Zm0,48.7a5.22,5.22,0,1,0,5.22,5.23,5.22,5.22,0,0,0-5.22-5.23Zm0,48.7a5.23,5.23,0,1,0,5.22,5.23,5.22,5.22,0,0,0-5.22-5.23Zm0,194.79a5.23,5.23,0,1,1-5.23,5.23,5.22,5.22,0,0,1,5.23-5.23Zm0,48.7a5.22,5.22,0,1,1-5.23,5.22,5.22,5.22,0,0,1,5.23-5.22ZM492,686.35a5.22,5.22,0,1,1-5.22,5.22,5.22,5.22,0,0,1,5.22-5.22Zm42.3,22.89a5.22,5.22,0,1,1-5.23,5.23,5.23,5.23,0,0,1,5.23-5.23ZM581,729.13a5.22,5.22,0,1,1-5.23,5.23,5.23,5.23,0,0,1,5.23-5.23Zm52.24,20.4a5.23,5.23,0,1,1-5.22,5.23,5.23,5.23,0,0,1,5.22-5.23Zm268-528.15-449.17-.06,29.49,29.34,390.21.05,29.48-29.33Zm-98.32,9.12a5.22,5.22,0,1,0,5.23,5.23,5.23,5.23,0,0,0-5.23-5.23Zm-51.74,0a5.22,5.22,0,1,0,5.23,5.23,5.22,5.22,0,0,0-5.23-5.23Zm-51.75,0a5.22,5.22,0,1,0,5.23,5.23,5.23,5.23,0,0,0-5.23-5.23Zm-51.75,0a5.22,5.22,0,1,0,5.23,5.23,5.22,5.22,0,0,0-5.23-5.23Zm-51.74,0a5.22,5.22,0,1,0,5.23,5.23,5.22,5.22,0,0,0-5.23-5.23Zm-51.75,0a5.22,5.22,0,1,0,5.22,5.23,5.22,5.22,0,0,0-5.22-5.23Zm-51.74,0a5.22,5.22,0,1,0,5.22,5.23,5.22,5.22,0,0,0-5.22-5.23Zm362.21,0a5.22,5.22,0,1,0,5.22,5.23,5.22,5.22,0,0,0-5.22-5.23ZM461.47,452.37a5.22,5.22,0,1,0,5.22,5.22,5.22,5.22,0,0,0-5.22-5.22Zm429.72,0a5.22,5.22,0,0,0-.37,10.43h.37a5.22,5.22,0,1,0,0-10.45Zm-23-192.94-384-.05.27,379.31A32.14,32.14,0,0,0,489,656.13C502,677.71,544.27,695,566.71,703.89c33.43,13.23,76,26.22,110.12,47.51,34.12-21.25,76.64-34.23,110-47.42,25.42-10,82.46-30.6,82.36-65.09l-1.09-379.46ZM896.9,500.65c-5,.45-5.87,4.78-5.42,7.16,6.37-.07,11.92,1,16.38,3.69,2.59,1.33,5.18-.1,5.63-1.53,1.12-3.5-.11-7-3.38-8.09a31.83,31.83,0,0,0-13.21-1.23ZM543,130c-3.92-10.41-8.36-20.74-12.21-31.17,11.23,8.17,26.2,15.49,39.38,22.4q-4.78,1.42-9.55,2.93c-6.09-3.36-12.56-6.76-18-11.38,1.93,5.13,4.28,10.1,6.3,15.2L543,130Zm48.73-14.7q-5.51,1.39-11,2.91c7.63-13.87,13.38-30.83,17.4-46.36,8.23,11.65,20.8,23.68,35.63,35.09q-5.24.75-10.48,1.64C615.55,102.88,606.8,96,602,88.72c-1.79,8.73-6.52,19.26-10.31,26.58Zm56.45-10.09c11.31-14.88,21.08-33.28,28-50,7.77,15.26,17.06,34.85,30.46,50.2q-6.78-.72-13.57-1.13c-7.13-9-12.86-21.74-16.41-31C673.22,84,666.88,95.7,661,104.23q-6.42.35-12.85,1ZM761,115.47q5.51,1.39,11,2.91c-7.63-13.88-13.39-31-17.4-46.53-8.75,11.48-20.7,23.79-34.31,35.33q5.55.83,11.11,1.83A77.54,77.54,0,0,0,751.3,88.72C752.82,97.31,757,108,761,115.47Zm48.22,14.28,11.43-30.91a296.17,296.17,0,0,1-36.43,23q3.9,1.16,7.79,2.36a105.79,105.79,0,0,0,17.56-11.66L803.83,128l5.43,1.78Zm30.49-63.93a6.25,6.25,0,1,1-6.25,6.25,6.25,6.25,0,0,1,6.25-6.25ZM763.37,39.19a7.23,7.23,0,1,1-7.23,7.24,7.24,7.24,0,0,1,7.23-7.24ZM676.49,10.7a7.36,7.36,0,1,0,7.35,7.36,7.35,7.35,0,0,0-7.35-7.36ZM590,39.19a7.23,7.23,0,1,0,7.23,7.24A7.24,7.24,0,0,0,590,39.19ZM513.57,65.82a6.25,6.25,0,1,0,6.25,6.25,6.25,6.25,0,0,0-6.25-6.25Zm39.19,80.11,1.93,5.49a359.13,359.13,0,0,1,121.43-21c40.63.1,81.45,7.24,122.44,21.05l1.84-5.51c-41.56-14-83-21.24-124.27-21.35a364.78,364.78,0,0,0-123.36,21.36Zm251.76-6.65c1,.4,5.63,2.51,6.64,2.93A88.54,88.54,0,0,1,801,163.05c-3.85-1.55-2.06-.88-5.94-2.31a340.91,340.91,0,0,0-237.46,0c-3.88,1.43-2.09.75-5.94,2.31a88.62,88.62,0,0,1-10.12-20.84c1-.42,5.64-2.52,6.64-2.93a343.9,343.9,0,0,1,256.3,0ZM560.81,167.39a344.37,344.37,0,0,0,231.12,0q-6.84-2.44-13.73-4.58a382.45,382.45,0,0,1-102.08,14.51,361.4,361.4,0,0,1-101.81-14.44q-6.77,2.11-13.5,4.51ZM705.66,326.81l.66.36,9.89-11.47-.88-.58c-11-7.24-24.68-9.38-37.6-9.38-8.65,0-19.13,1-26.69,5.58-5.85,3.55-9.42,8.6-9.42,15.55a15,15,0,0,0,2.42,8.58,17.93,17.93,0,0,0,7.2,5.89,43.9,43.9,0,0,0,11.7,3.48,130.07,130.07,0,0,0,16.22,1.53c3,.13,6,.31,9.06.44a39.1,39.1,0,0,1,6.63.76,10.21,10.21,0,0,1,3.9,1.57,2.9,2.9,0,0,1,1.12,2.48c0,2.76-2.34,4.44-4.6,5.52-4.14,2-9.8,2.35-14.32,2.35a58.69,58.69,0,0,1-16.72-2.36,68.55,68.55,0,0,1-16.06-7.26l-.69-.42L638,361.1l.82.57a64.23,64.23,0,0,0,19.35,9.19,82.39,82.39,0,0,0,22.1,2.82c9.06,0,20.07-1,28-5.88,6.28-3.86,9.8-9.38,9.8-16.82a17.5,17.5,0,0,0-1.89-8.37,15.55,15.55,0,0,0-5.78-5.88,32.86,32.86,0,0,0-9.41-3.64,95.08,95.08,0,0,0-13-2c-2.35-.22-4.7-.39-7.06-.48l-6.35-.26c-1.86-.08-3.71-.2-5.56-.39a37,37,0,0,1-4.76-.76c-1.77-.42-4.77-1.34-4.77-3.62s2.7-3.36,4.39-4c4.26-1.52,10.14-1.73,14.62-1.73a57.59,57.59,0,0,1,14,1.67,56.34,56.34,0,0,1,13.28,5.27ZM511.73,441.86v22.8h0v6.79h67.37v-6.79h0v-22.8H563.55v18H553.21v-18H537.64v18H527.29v-18Zm5.73,35h55.72v27.1H552.4V491.76a7.22,7.22,0,0,0-7-7.4h0a7.23,7.23,0,0,0-7,7.4v12.17h-21v-27.1Zm153,189.46v-6.81h-9V647h9V624.8A33.12,33.12,0,0,1,658,619.59c-5.75-4-9.73-10.07-9.73-17.25a19.44,19.44,0,0,1,3.5-11,23.65,23.65,0,0,1,4.44-4.85,21.82,21.82,0,0,1,43.61,0,24.17,24.17,0,0,1,4.43,4.84,19.36,19.36,0,0,1,3.51,11c0,7.18-4,13.21-9.73,17.25a32.88,32.88,0,0,1-12.12,5.13V647h9.62v12.43h-9.62v7.93h11.7v12.81h-11.7v6.41H670.51l0-6.41H658.76V667.4h11.7v-1.12Zm-8.11-67.07a20,20,0,0,0,1.76,2A19.54,19.54,0,0,0,675,606.75h0l.41.06h.08l.13,0H676l.22,0,.21,0h0l.2,0h2.61l.2,0h0l.21,0,.22,0h.43l.13,0h.08l.4-.06h0a19.5,19.5,0,0,0,10.87-5.51,18.68,18.68,0,0,0,1.77-2,6.17,6.17,0,0,1,.89,3.12c0,2.38-1.57,4.68-4.11,6.46a23.64,23.64,0,0,1-24.84,0c-2.54-1.78-4.11-4.09-4.11-6.46a6.16,6.16,0,0,1,.89-3.12Zm16.73-3.31h-2.3l-.49-.08h0a8.57,8.57,0,1,1,2.83.11Zm94.73-149.58h68.32v-7.7H773.81v7.7Zm57.54,6.24v41.31h5.92V452.57Zm-57.54,54.59v-7.7h68.32v7.7Zm4.86-54.59v41.31h5.92V452.57Zm10.24,0a47.41,47.41,0,0,0,16.14,20.66,47.3,47.3,0,0,0-16.14,20.65H827a45.12,45.12,0,0,0-16-20.65,45.21,45.21,0,0,0,16-20.66Zm5.92,38.32c6.89-4.67,18.89-4.25,26.28,0ZM798.57,463a20.12,20.12,0,0,0,9.4,8.4,18.92,18.92,0,0,0,9.4-8.4c-8.28,4.47-10.52,4.85-18.8,0ZM659.22,409.57v43.71h-43.7v39.24h43.7v43.69h39.24V492.53h43.71V453.28H698.46V409.57Zm-217,487.64,20.31,4.24v-4.7l-26.18-5.47V916l5.87,1.23V907L456.32,910v-4.7l-14.11-2.95v-5.11Zm25.38,25,5.92.95V898.53l-5.92-.95v24.67Zm30.32.35a7.76,7.76,0,0,0,3.69-.27,6.41,6.41,0,0,0,2.91-1.86,5.89,5.89,0,0,0,1.51-4,8.67,8.67,0,0,0-.6-3.21,9.26,9.26,0,0,0-1.68-2.75,9.5,9.5,0,0,0-2.58-2,10.1,10.1,0,0,0-3.28-1.1l-10.8-1.72v15.27l10.84,1.73Zm-.4-20L481.15,900v24.67l17.17,2.74a16,16,0,0,0,5.26,0,11.3,11.3,0,0,0,4.33-1.63,9.16,9.16,0,0,0,4.34-8.24,13.79,13.79,0,0,0-4-9.78,16.82,16.82,0,0,0-4.65-3.3,21.58,21.58,0,0,0-6.12-1.87ZM519,930.63l27.5,3.4v-4.7l-21.54-2.66v-5.45L539.26,923v-4.7l-14.31-1.77v-5.11l20.6,2.55v-4.7L519,906v24.67Zm62.8,6.73,6,.55V913.24l-7-.65L570,924.67l-10.79-14.09-7-.65V934.6l6,.55V917.64h.1L570,932.88l11.7-13.05h.1v17.52Zm23.92,1.52,27.67,1.48v-4.7l-21.68-1.16V929l14.4.77v-4.7l-14.4-.77v-5.11l20.72,1.11v-4.7l-26.71-1.43v24.67Zm48.36-18,11.75.28v-4.7l-29.5-.71v4.7l11.75.29v20l6,.14v-20Zm48.53,14.47a8.39,8.39,0,0,0,3.43-3,8.07,8.07,0,0,0,.39-7.54,7.36,7.36,0,0,0-2.13-2.6,10.1,10.1,0,0,0-3.34-1.66,16,16,0,0,0-8.75.13,10.17,10.17,0,0,0-3.34,1.78,7.8,7.8,0,0,0-2.13,2.66,7.57,7.57,0,0,0-.75,3.37,7.74,7.74,0,0,0,.73,3.4,7.14,7.14,0,0,0,2.11,2.6,9.93,9.93,0,0,0,3.32,1.65,15,15,0,0,0,4.39.53H697l-2.79-2.86,5.35-1.58,3,3.09Zm-1.43,5.58,3.17,3.22,5.25-1.64-3.31-3.43a13.92,13.92,0,0,0,5.28-4.66,11.38,11.38,0,0,0,1.77-6.28,11,11,0,0,0-4.3-8.9,16.43,16.43,0,0,0-5.54-2.93,22.79,22.79,0,0,0-13.85.2,17.55,17.55,0,0,0-5.56,3.09,11.25,11.25,0,0,0-4.29,9,11.67,11.67,0,0,0,1.06,5,11.07,11.07,0,0,0,3.17,4,16.22,16.22,0,0,0,5.52,2.92,22,22,0,0,0,7,1,21.1,21.1,0,0,0,2.3-.15c.76-.09,1.54-.22,2.33-.39Zm47.7-10.28V914.26l-6,.32v15.54a4.49,4.49,0,0,1-2.31,3.79,13.25,13.25,0,0,1-6.61,1.76,12.49,12.49,0,0,1-6.6-1,3.92,3.92,0,0,1-2.32-3.56V915.53l-6,.32v16.36a6.41,6.41,0,0,0,1,3.55,8.26,8.26,0,0,0,3,2.71,15.39,15.39,0,0,0,4.68,1.63,25.75,25.75,0,0,0,6.22.35,26.5,26.5,0,0,0,6.23-1,17.19,17.19,0,0,0,4.68-2.12,9.77,9.77,0,0,0,3-3,7,7,0,0,0,1-3.67Zm19.93-13.49-5.4,10.57,10.8-.9-5.4-9.67Zm10.73,19.25,6-.51-13-23.58-7.37.61L752.1,938.66l6-.51,2.82-5.55,15.76-1.32,2.82,5.08Zm9.82-.82,24.86-2.46v-4.7l-18.89,1.87v-20l-6,.59v24.67Zm29.09-3.17,6-.74V907l-6,.74v24.67Zm28.05-23.55,11.64-1.69v-4.7l-29.21,4.24v4.7l11.63-1.69v20l5.94-.86v-20Zm25.09-4.26-5.35,11,10.7-1.74-5.35-9.25ZM882.23,923l6-1L875.3,899.45l-7.3,1.19-12.95,26.78,6-1,2.79-5.77,15.6-2.54,2.79,4.86Zm32.19-23.93,3.34-4.62q-5.38-2.54-14.23-.76-6.62,1.32-10.06,4.15a8.23,8.23,0,0,0-3.44,6.47,4.75,4.75,0,0,0,.87,3,4.92,4.92,0,0,0,2.62,1.66,14.49,14.49,0,0,0,4.39.45,47.14,47.14,0,0,0,6.18-.65l3.48-.53a15.28,15.28,0,0,1,2.61-.22,3.55,3.55,0,0,1,1.64.35,1.22,1.22,0,0,1,.56,1.15q0,1.54-2,2.88a15.5,15.5,0,0,1-5.65,2.09A21,21,0,0,1,892,913.2l-3.21,4.66a19.65,19.65,0,0,0,7.32,2.08,30.11,30.11,0,0,0,8.38-.59q7-1.4,10.54-4.37a8.83,8.83,0,0,0,3.59-7,5.76,5.76,0,0,0-.68-3,4.21,4.21,0,0,0-2.09-1.75,10.23,10.23,0,0,0-3.51-.68,34.42,34.42,0,0,0-4.94.21q-1.4.15-2.69.35l-2.44.39c-.77.12-1.49.21-2.16.28a13.49,13.49,0,0,1-1.87.07c-1.4-.06-2.11-.51-2.11-1.35s.64-1.55,1.93-2.28a20.35,20.35,0,0,1,5.73-1.85,21.79,21.79,0,0,1,5.44-.43,18.44,18.44,0,0,1,5.18,1.05Zm-798.7,262.78c0-17-11.54-28.5-37.23-34.79l-25.35-6.29c-13.11-3.32-22.37-7.17-22.37-14.33s9.79-12.94,29.36-12.94c19.93,0,39.51,6.12,46.15,22.72v-32.16c-10.14-4.37-27.79-7.52-45.28-7.52-31.46,0-59.61,10.14-59.61,35.49,0,15,10.49,26.57,35,32.69l25,6.29c12.06,3,22.55,7.17,22.55,15,0,10.49-17.13,13.81-32,13.81-21.68,0-43.35-8.57-51.92-29.54v37.23c12.24,5.77,31.64,10,52.44,10,35.66,0,63.28-10.66,63.28-35.66Zm256-83.21h-50s9.61.52,9.61,10.14c0,2.8-.87,6.29-2.8,10.66l-28.14,62.23-28-60.66a26.62,26.62,0,0,1-3-11.54c0-10.14,10-10.84,10-10.84H227.51s10.67,1.57,10.67,12.58a27.37,27.37,0,0,1-2.8,11.36l-26.92,59.08-27.79-62.23c-2.1-4.54-3.14-8-3.14-10.84,0-9.09,8.91-10,8.91-10H127.17s11.71,1,21.5,22.2L192,1195.05H215.8l34.09-75,34.61,75h23.77l42-93.17c10-22.2,21.5-23.25,21.5-23.25Zm66.34,116.42s-11-.53-11-18.53v-78.14c0-18.18,11-19.75,11-19.75h-53s11.36,1.57,11.36,19.75v78.14c0,18-11.36,18.53-11.36,18.53Zm153.57-82-2.27-34.44H458.25l-2.62,34.44c4.54-14.16,11.71-18.18,28.84-18.18h23.78v80.24c0,19.93-11.19,19.93-11.19,19.93h53.49s-11.36-.18-11.36-19.93v-80.24h23.95c17.83,0,24.3,5.25,28.49,18.18Zm146.05,40.55c-8.22,16.26-16.61,25-34.78,25H655.7l76-100H611.47v37.93c3.85-12.93,10.14-21.68,31.29-21.68h40.9l-76.22,100.16H733.14l4.54-41.43Zm149.89,10.14c0-14.68-11.54-29.19-32.16-30.94,15.91-2.45,25.17-14.68,25.17-26.57,0-13.64-12.06-27.62-39.51-27.62H754.72s12.76.7,12.76,20.28v75.34c0,20.1-11,20.8-11,20.8h88.8c29.19,0,42.3-15.56,42.3-31.29Zm-39.15-53.84c0,9.26-5.25,17.48-19.23,17.48H798.08v-32.51h30.76c14,0,19.58,7.52,19.58,15Zm7,52.09c0,9.27-5.07,16.61-23.07,16.61H798.08v-35.49h31.81c18.36,0,25.52,7,25.52,18.88Zm179.09-3.84c-7,13.11-16.78,20.45-34.61,20.45H952.34v-34.09h41.08c16.61,0,17.66,9.79,17.66,9.79v-36.18s-1.22,10-17.83,10h-40.9v-33.22h44.57c17.3,0,25.35,6.65,27.79,18.88v-35.13H907.59s14,.7,14,19.58v75.52c0,20.63-12.06,21.32-12.06,21.32h117.64l7.34-36.88Zm163.71,36.88a43,43,0,0,1-24.12-14l-23.07-26.4c-5.77-6.64-8.22-8-11.71-9.26h2.45c18.7,0,37.41-11.36,37.41-32.16,0-18.71-17.48-34.61-51.22-34.61h-76.22s13.11,1,13.11,20.45v76.21c0,19.4-11.36,19.75-11.36,19.75h51.74s-11.36-.35-11.36-19.75v-25.52h12.41c5.25,0,9.09,3.15,15.21,10.66l28,34.61ZM1148,1113.59c0,11.89-8.74,20.1-25,20.1h-29.36v-38.81h28.49c15.73,0,25.87,7,25.87,18.71Zm207.23,29h-53.84s12.41.87,12.41,17v18a86.14,86.14,0,0,1-21.33,3c-28.67,0-49.12-16.61-49.12-43.7,0-30.59,25.17-43.53,50.52-43.53,21.5,0,43.18,9.27,49.47,25.7v-36.18c-13.64-5.07-31.11-7-46.15-7-54.54,0-86.18,29-86.18,63.8,0,29.54,24.12,58,74.29,58,15.91,0,43.18-1.93,58-7V1159C1343.38,1143.14,1355.26,1142.61,1355.26,1142.61Z"/></svg>